<svg id="Layer_1" data-name="Layer 1" xmlns="http://www.w3.org/2000/svg" viewBox="0 0 700 700"><defs><style>.cls-1{fill:#ebf2ff;}.cls-2{fill:#1e3a5e;}.cls-3{fill:#494f80;}.cls-4{fill:#eea886;}.cls-5{fill:#de9d7d;}.cls-6{fill:#a77860;}.cls-7{fill:#525252;}.cls-8{fill:#163342;}.cls-9{fill:#807066;}</style></defs><title>iconos</title><g id="Group_1137" data-name="Group 1137"><g id="Group_1136" data-name="Group 1136"><path id="Path_1893" data-name="Path 1893" class="cls-1" d="M606.87,371.85A257.29,257.29,0,0,1,457.76,605.37c-.76.37-1.53.72-2.29,1.07q-9,4.08-18.38,7.47c-133.67,48.38-281.24-20.76-329.61-154.43S128.24,178.25,261.9,129.87,543.14,150.63,591.51,284.3a257.53,257.53,0,0,1,15.37,87.56Z"/><g id="Group_1135" data-name="Group 1135"><g id="Group_1094" data-name="Group 1094"><g id="Group_1093" data-name="Group 1093"><g id="Group_1092" data-name="Group 1092"><g id="Group_1091" data-name="Group 1091"><path id="Path_1894" data-name="Path 1894" class="cls-2" d="M455.47,606.44a258.32,258.32,0,0,1-180.26,11.85c6-33.81,11.13-62.21,11.13-62.21s141.17-65.11,156.32-23C449.5,552.14,453.44,578,455.47,606.44Z"/></g></g></g></g><g id="Group_1098" data-name="Group 1098"><g id="Group_1097" data-name="Group 1097"><g id="Group_1096" data-name="Group 1096"><g id="Group_1095" data-name="Group 1095"><path id="Path_1895" data-name="Path 1895" class="cls-3" d="M534,433.91c0,1.95-3.67,9.75-9.55,21-8.58-17.18-15.33-31.29-17.54-36.48-7.23-17.09-44.53-56.27-44.53-56.27a.31.31,0,0,1,0,.08,0,0,0,0,1,0,.05v0l0,.16c0,.1-.06.2-.09.33a1.66,1.66,0,0,0-.06.21.94.94,0,0,0,0,.16c-2,7.56-14.5,54.85-15,78.15-.52,25.35-2.72,97.24-2.72,97.24a888.27,888.27,0,0,1-158.12,17.55s-.85-20-1.16-49.94c0-3.16,3.45-78.28-.09-91.92l-1.86-11.51c-4.94,16.89-28.24,47-28.24,47-22.85,24.22-43.34,35.16-59.1,58l-28.37-24.43,66-85.19,18.87-54.46h0L262,316c1.08-.86,12.48-39.22,21.74-43.62,9.45-4.5,33.15-15.1,43.46-20.75,5.26-2.88,10.24-5.5,14.54-7.47l.66-.3h0l11.83-5.41h0l3.1-.3c9.91-.94,40.74-3.83,51.06-4.43.85-.06,1.56-.09,2.12-.1a8.53,8.53,0,0,1,1,0,129.08,129.08,0,0,1,16,5.47h0l.95.37,1.18.44,2.21.86c1.5.58,3,1.18,4.59,1.8l1.63.64c16.7,6.63,35.38,15.6,40.4,18.1,10,5,14,14.23,23.22,41.62,14,44.78,31.69,113.32,32.24,130.22C534,433.41,534,433.67,534,433.91Z"/></g></g></g></g><g id="Group_1102" data-name="Group 1102"><g id="Group_1101" data-name="Group 1101"><g id="Group_1100" data-name="Group 1100"><g id="Group_1099" data-name="Group 1099"><path id="Path_1896" data-name="Path 1896" class="cls-4" d="M413.65,234.13c-.44,22.18-45.71,29-45.71,29s-18-22.53-13.68-24.68c1.2-.61,1.89-2.48,2.26-4.86a29.9,29.9,0,0,0,.32-3.13c.06-1,.08-2.09.08-3.15,0-2.6-.17-5.12-.33-6.91-.12-1.57-.25-2.58-.25-2.58s6.28-5.81,14.09-13.52l27.18-26.47C394.3,193.33,413.65,234.13,413.65,234.13Z"/></g></g></g></g><g id="Group_1105" data-name="Group 1105"><g id="Group_1104" data-name="Group 1104"><g id="Group_1103" data-name="Group 1103"><path id="Path_1897" data-name="Path 1897" class="cls-5" d="M441.07,552.88s-5.62,13.84-13.05,16-14.45,6.62-17.66,11.85,36.33,19.67,36.33,19.67S463,575,461.54,563.92,441.07,552.88,441.07,552.88Z"/></g></g></g><g id="Group_1108" data-name="Group 1108"><g id="Group_1107" data-name="Group 1107"><g id="Group_1106" data-name="Group 1106"><path id="Path_1898" data-name="Path 1898" class="cls-3" d="M462.15,363.15s24.47,35.7,20.68,69.81L425.47,563.22S443.62,578.87,459,585.3c0,0,67-130.38,75.07-151.39C534.05,433.91,507.6,355.14,462.15,363.15Z"/></g></g></g><g id="Group_1111" data-name="Group 1111"><g id="Group_1110" data-name="Group 1110"><g id="Group_1109" data-name="Group 1109"><path id="Path_1899" data-name="Path 1899" class="cls-2" d="M457.77,605.37c-.77.37-1.53.72-2.3,1.07q-9,4.08-18.38,7.47l-35.71-23,5.41-10.64Z"/></g></g></g><g id="Group_1113" data-name="Group 1113"><g id="Group_1112" data-name="Group 1112"><path id="Path_1900" data-name="Path 1900" class="cls-6" d="M392.63,193.41s-2,35.8-36.11,40.21a29.9,29.9,0,0,0,.32-3.13c.06-1,.08-2.09.08-3.15l.22-.07S381.66,223.84,392.63,193.41Z"/></g></g><g id="Group_1115" data-name="Group 1115"><g id="Group_1114" data-name="Group 1114"><path id="Path_1901" data-name="Path 1901" class="cls-7" d="M312.89,532.22H179.55l-39.37-82.49H273.53Z"/></g></g><g id="Group_1117" data-name="Group 1117"><g id="Group_1116" data-name="Group 1116"><path id="Path_1902" data-name="Path 1902" class="cls-7" d="M316.25,529.07l-39.37-82.48H143.53l-3.35,3.15H145l37.86,79.34H311.39l1.51,3.15Z"/></g></g><g id="Group_1121" data-name="Group 1121"><g id="Group_1120" data-name="Group 1120"><g id="Group_1119" data-name="Group 1119"><g id="Group_1118" data-name="Group 1118"><path id="Path_1903" data-name="Path 1903" class="cls-5" d="M145.57,480.87s16.22-9.87,22.2-7.8.32,6,.32,6,5.54-3.93,9,.08-3.37,8.21-3.37,8.21a5.23,5.23,0,0,1,6.76,3c0,.12.09.24.13.36,1.91,5.23-4.55,7.43-4.55,7.43s8.38,1.23,4.69,7.26c-6.22,10.2-19.94,11.7-19.94,11.7s-3.32.05-4.81-5.12c0,0-8.19.68-7.65-8.64,0,0-8.13-4.54-3.25-10.72C145.16,492.6,136.78,487.23,145.57,480.87Z"/></g></g></g></g><g id="Group_1125" data-name="Group 1125"><g id="Group_1124" data-name="Group 1124"><g id="Group_1123" data-name="Group 1123"><g id="Group_1122" data-name="Group 1122"><path id="Path_1904" data-name="Path 1904" class="cls-4" d="M396.9,180.32c-2.44,8.56-5,14.88-5.67,17.33h0a28.89,28.89,0,0,1-3.93,7.45c-5.84,8.61-17.31,20.55-30.15,22.17a22.86,22.86,0,0,1-4.3.14,20.29,20.29,0,0,1-16.16-7.85c-34.46-47.79-21.79-93.14-21.79-93.14s69.27-31.61,84-11.55C409.14,128.94,402.64,160.22,396.9,180.32Z"/></g></g></g></g><g id="Group_1129" data-name="Group 1129"><g id="Group_1128" data-name="Group 1128"><g id="Group_1127" data-name="Group 1127"><g id="Group_1126" data-name="Group 1126"><path id="Path_1905" data-name="Path 1905" class="cls-8" d="M314.88,126.42s-6.78.66-10.41-11.83-.79-16.35-.79-16.35,28-17.11,38.47-20.39,36.64-8.9,43.92-2.77c0,0,14.5-5.8,22.43,18.53,12.58,38.6-10.15,81.45-10.15,81.45s-3.73-25.9-10-28.46-9.91,6.36-9.91,6.36l-11.35,3.89s11.85-41-9.63-39.16S327.4,126.77,314.88,126.42Z"/></g></g></g></g><g id="Group_1133" data-name="Group 1133"><g id="Group_1132" data-name="Group 1132"><g id="Group_1131" data-name="Group 1131"><g id="Group_1130" data-name="Group 1130"><path id="Path_1906" data-name="Path 1906" class="cls-4" d="M377.22,142.6c-.64-11.57,19.3-19.09,19.75-6.93s-7.92,25.19-12.68,25.5S377.71,151.41,377.22,142.6Z"/></g></g></g></g><path id="Path_1907" data-name="Path 1907" class="cls-9" d="M373.61,143.79c-.38,10,5.74,18.31,13.67,18.62s14.69-7.53,15.06-17.52-5.73-18.31-13.65-18.62S374,133.81,373.61,143.79Z"/><g id="Group_1134" data-name="Group 1134"><path id="Path_1908" data-name="Path 1908" class="cls-9" d="M362.21,199.92,359.93,197c26.65-20.58,28.82-52.91,28.83-53.24l3.73.21C392.41,145.32,390.24,178.26,362.21,199.92Z"/></g><path id="Path_1909" data-name="Path 1909" class="cls-9" d="M355.7,203.13a5.61,5.61,0,1,0,2.32-7.59,5.61,5.61,0,0,0-2.32,7.59Z"/></g></g></g></svg>