<?xml version="1.0" encoding="UTF-8"?> <!-- Generator: Adobe Illustrator 24.0.3, SVG Export Plug-In . SVG Version: 6.00 Build 0) --> <svg xmlns="http://www.w3.org/2000/svg" xmlns:xlink="http://www.w3.org/1999/xlink" id="Слой_1" x="0px" y="0px" viewBox="0 0 451.2 370.3" style="enable-background:new 0 0 451.2 370.3;" xml:space="preserve"> <style type="text/css"> .st0{fill:url(#SVGID_1_);} .st1{fill:url(#SVGID_2_);} .st2{fill:#AEBECC;} .st3{fill:#F0F0F0;} .st4{fill:#FFFFFF;} .st5{fill:url(#SVGID_3_);} .st6{fill:#757575;} .st7{fill:#DFE1E8;} .st8{fill:#EEF0F7;} .st9{fill:#3C4145;} .st10{fill:#EEA886;} .st11{fill:#E55353;} .st12{fill:#A77860;} .st13{fill:#BD4444;} .st14{fill:#D9C7C1;} .st15{fill:#EEA987;} .st16{fill:#E8734D;} .st17{fill:#C78D71;} .st18{fill:#EDDAD3;} .st19{fill:#5073AB;} .st20{fill:#323657;} .st21{fill:#F5F7FF;} .st22{fill:#949494;} .st23{fill:#9BC43A;} .st24{fill:#F3F3F3;} .st25{fill:#131C24;} .st26{fill:#4F4946;} .st27{fill:#293E4F;} .st28{fill:#1A2833;} .st29{fill:#385369;} .st30{fill:#3E5E78;} .st31{fill:#263947;} .st32{fill:#706865;} .st33{fill:#BDAFAA;} .st34{fill:#B5DEFF;} .st35{fill:#E2D2CA;} .st36{fill:#CCBDB7;} .st37{fill:#4667A8;} .st38{fill:#B59074;} .st39{fill:#EAD8CF;} .st40{fill:#DA9B5B;} .st41{fill:#424773;} .st42{fill:#292C47;} .st43{fill:#3A3F47;} .st44{fill:#918783;} .st45{fill:#5E5854;} .st46{fill:#BFB2AC;} .st47{fill:#5F8BE3;} .st48{fill:#CECFD6;} .st49{fill:#59524F;} .st50{fill:#314875;} .st51{fill:#1D3B54;} .st52{fill:#DE9673;} .st53{fill:#EB4747;} .st54{fill:#754836;} .st55{fill:#DB9C7C;} .st56{fill:#4DA8F2;} .st57{fill:#EFAA88;} .st58{fill:#D88A51;} </style> <g> <linearGradient id="SVGID_1_" gradientUnits="userSpaceOnUse" x1="404.6118" y1="250.8903" x2="404.6118" y2="288.9092" gradientTransform="matrix(1 0 0 -1 0 371.3934)"> <stop offset="0" style="stop-color:#A5CD39"></stop> <stop offset="1" style="stop-color:#0099AC"></stop> </linearGradient> <path class="st0" d="M419.6,90.6L406.6,83c-1.2-0.7-2.7-0.7-3.9,0l-13.1,7.5c-1.2,0.7-2,2-2,3.4V109c0,1.4,0.7,2.7,2,3.4l13.1,7.5 c1.2,0.7,2.7,0.7,3.9,0l13.1-7.5c1.2-0.7,2-2,2-3.4V94C421.6,92.5,420.9,91.3,419.6,90.6z M413.1,105.3c0,0.7-0.4,1.3-1,1.7 l-6.5,3.8c-0.6,0.4-1.4,0.4-2,0l-6.5-3.8c-0.6-0.3-1-1-1-1.7v-7.5c0-0.7,0.4-1.3,1-1.7l6.5-3.8c0.6-0.4,1.4-0.4,2,0l6.5,3.8 c0.6,0.3,1,1,1,1.7V105.3z"></path> <linearGradient id="SVGID_2_" gradientUnits="userSpaceOnUse" x1="375.2328" y1="283.9613" x2="375.2328" y2="369.9519" gradientTransform="matrix(1 0 0 -1 0 371.3934)"> <stop offset="0" style="stop-color:#A5CD39"></stop> <stop offset="1" style="stop-color:#0099AC"></stop> </linearGradient> <path class="st1" d="M409.2,19.7L379.7,2.6c-2.7-1.6-6.1-1.6-8.9,0l-29.6,17.1c-2.7,1.6-4.4,4.5-4.4,7.7v34.1 c0,3.2,1.7,6.1,4.4,7.7l29.6,17.1c2.7,1.6,6.1,1.6,8.9,0l29.5-17.1c2.7-1.6,4.4-4.5,4.4-7.7V27.4C413.7,24.2,412,21.3,409.2,19.7z M394.4,53c0,1.6-0.8,3-2.2,3.8l-14.8,8.5c-1.4,0.8-3.1,0.8-4.4,0l-14.8-8.5c-1.4-0.8-2.2-2.3-2.2-3.8V35.9c0-1.6,0.8-3,2.2-3.8 l14.8-8.5c1.4-0.8,3.1-0.8,4.4,0l14.8,8.5c1.4,0.8,2.2,2.3,2.2,3.8V53z"></path> <g> <rect x="213.4" y="209.7" transform="matrix(-1 -1.224647e-16 1.224647e-16 -1 461.5477 524.8584)" class="st2" width="34.7" height="105.5"></rect> </g> <g> <path class="st3" d="M96.1,260.5h269.4c8.4,0,15.3-6.8,15.3-15.3V64.2c0-8.4-6.8-15.3-15.3-15.3H96.1c-8.4,0-15.3,6.8-15.3,15.3 v181.1C80.8,253.7,87.7,260.5,96.1,260.5z"></path> </g> <g> <rect x="92.6" y="26.4" transform="matrix(-1 -1.224647e-16 1.224647e-16 -1 461.5468 253.773)" class="st4" width="276.4" height="200.9"></rect> </g> <g> <linearGradient id="SVGID_3_" gradientUnits="userSpaceOnUse" x1="92.5732" y1="38.5598" x2="368.9736" y2="38.5598"> <stop offset="0" style="stop-color:#0199AA"></stop> <stop offset="1" style="stop-color:#9BC43A"></stop> </linearGradient> <polygon class="st5" points="92.6,50.7 369,50.7 369,26.4 92.6,26.4 "></polygon> </g> <g> <path class="st6" d="M221.1,242.5c0,5.3,4.3,9.7,9.7,9.7c5.3,0,9.7-4.3,9.7-9.7c0-5.3-4.3-9.7-9.7-9.7 C225.4,232.8,221.1,237.2,221.1,242.5z"></path> </g> <g> <g> <g> <path class="st7" d="M178.1,75.1h90.1c1.9,0,3.5-1.6,3.5-3.5v-0.2c0-1.9-1.6-3.5-3.5-3.5h-90.1c-1.9,0-3.5,1.6-3.5,3.5v0.2 C174.6,73.6,176.2,75.1,178.1,75.1z"></path> </g> </g> </g> <g> <g> <g> <path class="st7" d="M178.1,88.1h90.1c1.9,0,3.5-1.6,3.5-3.5v-0.2c0-1.9-1.6-3.5-3.5-3.5h-90.1c-1.9,0-3.5,1.6-3.5,3.5v0.2 C174.6,86.5,176.2,88.1,178.1,88.1z"></path> </g> </g> </g> <g> <g> <g> <path class="st7" d="M178.1,101.1h90.1c1.9,0,3.5-1.6,3.5-3.5v-0.2c0-1.9-1.6-3.5-3.5-3.5h-90.1c-1.9,0-3.5,1.6-3.5,3.5v0.2 C174.6,99.5,176.2,101.1,178.1,101.1z"></path> </g> </g> </g> <g> <g> <g> <g> <path class="st7" d="M224.6,213.2H121c-8.6,0-15.7-7-15.7-15.7v-63c0-8.6,7-15.7,15.7-15.7h103.6c8.6,0,15.7,7,15.7,15.7v63 C240.3,206.2,233.3,213.2,224.6,213.2z M121,120.8c-7.6,0-13.7,6.1-13.7,13.7v63c0,7.6,6.1,13.7,13.7,13.7h103.6 c7.6,0,13.7-6.1,13.7-13.7v-63c0-7.6-6.1-13.7-13.7-13.7H121z"></path> </g> </g> </g> </g> <g> <g> <g> <path class="st7" d="M129.2,142.6h87.2c3.8,0,6.9-3.1,6.9-6.9v-1.3c0-3.8-3.1-6.9-6.9-6.9h-87.2c-3.8,0-6.9,3.1-6.9,6.9v1.3 C122.3,139.5,125.4,142.6,129.2,142.6z"></path> </g> </g> </g> <rect x="152.7" y="311.2" class="st3" width="156.2" height="8"></rect> <g> <path class="st8" d="M337.9,139.6c0,8.3-4.5,15.5-11.1,19.4c-1.3,0.8-2.8,1.4-4.3,1.9c-0.1,0-0.3,0.1-0.4,0.1 c-2.1,0.7-4.4,1-6.7,1c-3.6,0-7-0.8-10-2.3c-7.4-3.7-12.5-11.3-12.5-20.2c0-12.4,10.1-22.5,22.5-22.5 C327.8,117.1,337.9,127.1,337.9,139.6z"></path> <g> <path class="st9" d="M310,137.2c0,0-1.5-9.9,6.7-9.8c8.2,0.2,8.1,5.1,8,10c-0.1,4.9-3.3,4.5,0.3,11.3c3.6,6.8-3.1,6.8-3.1,6.8 l-5.2-7.1L310,137.2z"></path> </g> <g> <path class="st10" d="M315.8,128.4c0,0-5.6,0.9-5.8,8.8c-0.2,7.9,1.5,9.6,6.4,8c4.9-1.7,6.4-9.9,6.5-11.2 C323,132.6,323.3,127.4,315.8,128.4z"></path> </g> <g> <path class="st11" d="M325.6,155.9c0,2.4-1.3,4-3.1,5c-0.1,0-0.3,0.1-0.4,0.1c-2.1,0.7-4.4,1-6.7,1c-3.6,0-7-0.8-10-2.3 c-0.7-1.4,0.3-3.3,2.3-6.2c1.4-2,2.7-4.1,5-5.1c3.4-0.5,7-0.6,9.5,0.9C324.2,150.4,325.6,152.5,325.6,155.9z"></path> </g> <g> <path class="st11" d="M308.8,153.4l-2.6,4c0,0,0.2-0.6,0.5-2.4c0.1-0.3,0.1-0.7,0.2-1.1c0-0.1,0-0.2,0.1-0.4l0,0 c1.1-2.5,4.5-4.4,4.6-4.5L308.8,153.4z"></path> </g> <g> <path class="st10" d="M326.8,159c-1.3,0.8-2.8,1.4-4.3,1.9c-0.1,0-0.3,0.1-0.4,0.1c-0.6-1.5-1.1-2.7-1.2-3.1 c0-0.1-0.1-0.3-0.2-0.5c-0.5-1.1-1.5-3.6-1.5-5.6c0-1.3,0.4-2.3,1.7-2.6c0.5-0.1,0.9-0.1,1.3-0.1c1.4,0.3,2.2,1.5,2.7,2.7 c0,0,0,0,0,0.1c0.4,1,0.5,1.8,0.5,1.8s0,0.1,0.1,0.2c0.1,0.3,0.2,0.9,0.4,1.7C326.2,156.6,326.4,157.7,326.8,159z"></path> </g> <g> <path class="st10" d="M319.5,141.6c-0.5,0.9-1,6.6-1,6.6s-6.8,2.6-6.1,1.1c0.3-0.7,0.4-1.5,0.4-2.3c0-0.6,0-1.1-0.1-1.4 c0-0.1,0-0.2,0-0.2S320,140.7,319.5,141.6z"></path> </g> <g> <path class="st9" d="M313.5,134.1c0,0,2.9,4.7,5.5,6.5c2.6,1.8,1.3,3.3,1.3,3.3s6.8-14.3,0.3-15.3c-6.5-1-10.4-1.1-10.6,8.6 C310,137.2,313,134,313.5,134.1z"></path> </g> <g> <path class="st12" d="M316.7,145c-1,1.5-3.8,2-3.8,2l0,0c0-0.6,0-1.1-0.1-1.4C314.5,146,316.7,145,316.7,145z"></path> </g> <path class="st13" d="M307,153.5L307,153.5c0,0-0.1,0.3-0.3,1.5l1-1.5c0,0,1.8-2.6,2.4-3.2c0.6-0.7,1.5-1.3,1.5-1.3 S308,150.7,307,153.5z"></path> <path class="st11" d="M320.5,157.3c0,0,4.4-1.7,5.7-1.8c0,0-0.9-7-5.2-6.3C316.7,149.9,320.5,157.3,320.5,157.3z"></path> <path class="st10" d="M312.7,148.4c0,0-3.2,4.9-2.1,5.4c1.1,0.4,7-0.6,9.5-5.3C320.1,148.5,316.3,146.6,312.7,148.4z"></path> </g> <g> <path class="st8" d="M346.2,73.9c0,16.1-13,29.3-29.3,29.3c-16.2,0-29.3-13.1-29.3-29.3c0-16.2,13.1-29.3,29.3-29.3 C333.1,44.7,346.2,57.8,346.2,73.9z"></path> <g> <g> <path class="st14" d="M336,90.1l-2.2,7.7c-3.9,2.7-8.4,4.6-13.3,5.2c-0.9,0.1-1.7,0.2-2.6,0.2c-0.3,0-0.6,0-1,0 c-0.9,0-1.9,0-2.8-0.1c-1-0.1-2-0.2-3-0.5c-4.4-0.9-8.5-2.8-12-5.5c-0.4-2.6-0.9-5.4-1.2-8c2.2-0.8,9-3.1,13.3-4.6 c0.1,0,0.1,0,0.2-0.1c0.1,0,0.2-0.1,0.3-0.1c0.3-0.1,0.5-0.2,0.7-0.2c0.2-0.1,0.5-0.2,0.7-0.2c0.9-0.3,1.5-0.5,1.7-0.6 c0,0,0,0,0,0c0.1,0,0.1,0,0.1,0l0,0l5.8,0.4l1,0.1l0.3,0c0,0,0,0,0.1,0c0.3,0.1,1.4,0.4,2.7,0.8c0,0,0,0,0,0 C328.3,85.7,333.9,87.7,336,90.1z"></path> </g> <g> <path class="st15" d="M318.5,59.4c0,0,7,1.2,5.8,12.1c-1.2,10.9-7.3,9.9-7.7,9.9c-0.4,0-6.2,0.1-6.5-13.2 C310,68.2,309.9,58.4,318.5,59.4z"></path> </g> <g> <path class="st15" d="M321.5,78.3c0,0-0.2,4.5,0.2,5.5c0.4,1-5.6,4.1-9.3,0.5c0,0,0.8-4.9,0.5-6.6 C312.6,75.9,321.5,78.3,321.5,78.3z"></path> </g> <g> <path class="st15" d="M324.4,68.4c0,0,0.8-0.8,1,0c0.3,0.8-1.2,4.5-1.1,4.7c0,0-0.1,0.3-0.3,0.1 C323.8,73.1,324.4,68.4,324.4,68.4z"></path> </g> <g> <path class="st15" d="M310.1,68.1c0,0-0.7-0.8-1,0c-0.3,0.8,0.8,4.5,0.9,4.7c0,0,0.2,0.4,0.4,0.2 C310.6,72.8,310.1,68.1,310.1,68.1z"></path> </g> <g> <path class="st16" d="M324.8,67.5c-0.2,1.5-0.5,2.6-0.5,2.6l-1,1.3c0,0,0.1-2.9-0.1-3.4c-0.1-0.2-0.1-0.5-0.2-0.8 c-0.1-0.6-0.2-1.2-0.3-1.4c-0.1-0.3-6-2-11.2,0.4c0,0,0,0.5,0,1c0,0.6-0.1,1.2-0.3,1.3c-0.5,0.2-0.3,3.4-0.3,3.4l-0.8-0.9 c0,0-0.2-1.7-0.5-3.6c0,0,0,0,0,0c-0.1-0.5-0.1-0.9-0.2-1.4c-0.1-2,0.1-5.5,2.6-7.6c1.7-0.7,4.5-1.4,9.1,0c0,0,1.1,0.1,1.3,0.4 C325.4,61.8,324.8,67.5,324.8,67.5z"></path> </g> <path class="st17" d="M313.4,80c0,0,1.1,1.5,3.7,1.5c2.6-0.1,3.7-1.4,3.7-1.4s-1.2,2.6-3.7,2.5C314.5,82.5,313.4,80,313.4,80z"></path> <path class="st15" d="M311.6,84.4c0,0,1.9,3.3,5.4,3.6c2.2,0.2,4.2-2.7,5.1-4.1C322.2,83.9,317.1,81.7,311.6,84.4z"></path> <path class="st18" d="M321.5,82.8c0,0-1.4,1.9-4.5,3.9l1.9,2.9l3.2-5.7L321.5,82.8z"></path> <path class="st18" d="M312.5,83.3c0,0,1.8,2.3,4.6,3.4l-2.1,3l-3.6-5.2L312.5,83.3z"></path> <path class="st19" d="M317.1,86.7l1.6,2.5c0,0-1.7,1-3.3-0.1L317.1,86.7z"></path> <path class="st20" d="M337.9,89.6c-0.3,1-0.7,2.5-1.8,6.5c-0.3,0.3-0.7,0.6-1,0.8c-0.4,0.3-0.8,0.6-1.2,0.9 c-3.9,2.7-8.4,4.6-13.3,5.2c0.4-10.1,1.6-19.1,1.6-19.1c0.9,0.2,1.8,0.5,2.7,0.7c0,0,0,0,0,0c7.4,2.1,11.2,4,12.5,4.7 c0,0,0,0,0,0C337.7,89.5,337.9,89.6,337.9,89.6z"></path> <path class="st20" d="M311.1,102.6c-4.4-0.9-8.5-2.8-12-5.5c-1-0.8-2-1.7-3-2.6c-0.2-0.2-0.4-0.4-0.5-0.6 c-0.5-2.2-0.9-3.6-0.9-3.7l0,0c0,0,3.6-2.4,16.4-5.8c0,0,0,0,0,0C311.2,84.8,311.2,93,311.1,102.6z"></path> <path class="st19" d="M318,89.4c-0.1,2.7-0.1,7.8-0.1,13.8c-0.3,0-0.6,0-1,0c-0.9,0-1.9,0-2.8-0.1c0.6-7.3,1.5-11.8,1.9-13.6 c0.1-0.6,0.2-0.9,0.2-0.9l1.7,0.3C318,89,318,89.2,318,89.4z"></path> <g> <path class="st20" d="M339.3,92.8c-1,1.2-2.1,2.3-3.3,3.3c-0.3,0.3-0.7,0.6-1,0.8l2.8-7.3C338.6,90.2,339.1,92.2,339.3,92.8z"></path> </g> <g> <path class="st20" d="M296.2,94.6c-0.2-0.2-0.4-0.4-0.5-0.6c-0.7-0.7-1.3-1.4-1.9-2.2c0.3-0.8,0.7-1.3,1-1.5l0,0L296.2,94.6z"></path> </g> </g> </g> <path class="st21" d="M140.2,43.1h-32.8c-1.8,0-3.3-1.5-3.3-3.3v-2.6c0-1.8,1.5-3.3,3.3-3.3h32.8c1.8,0,3.3,1.5,3.3,3.3v2.6 C143.5,41.7,142.1,43.1,140.2,43.1z"></path> <g> <ellipse transform="matrix(0.9999 -1.315423e-02 1.315423e-02 0.9999 -2.5135 4.1655)" class="st8" cx="315.4" cy="193.2" rx="22.5" ry="22.5"></ellipse> <g> <path class="st22" d="M315.4,202.1c-0.6,0-1.1-0.5-1.1-1.1v-15.7c0-0.6,0.5-1.1,1.1-1.1c0.6,0,1.1,0.5,1.1,1.1V201 C316.5,201.6,316,202.1,315.4,202.1z"></path> </g> <g> <path class="st22" d="M323.2,194.3h-15.7c-0.6,0-1.1-0.5-1.1-1.1c0-0.6,0.5-1.1,1.1-1.1h15.7c0.6,0,1.1,0.5,1.1,1.1 C324.4,193.8,323.9,194.3,323.2,194.3z"></path> </g> </g> <g> <g> <path class="st23" d="M267.4,140.9h-12.3c-2.4,0-4.4-2-4.4-4.4v-12.3c0-2.4,2-4.4,4.4-4.4h12.3c2.4,0,4.4,2,4.4,4.4v12.3 C271.8,138.9,269.8,140.9,267.4,140.9z"></path> </g> <g> <g> <g> <path class="st24" d="M260.6,135l-5.3-4.6c-0.4-0.4-0.5-1-0.1-1.5c0.4-0.4,1-0.5,1.5-0.1l3.8,3.3l5.4-6 c0.4-0.4,1.1-0.5,1.5-0.1c0.4,0.4,0.5,1.1,0.1,1.5L260.6,135z"></path> </g> </g> </g> </g> <g> <g> <path class="st23" d="M267.4,168h-12.3c-2.4,0-4.4-2-4.4-4.4v-12.3c0-2.4,2-4.4,4.4-4.4h12.3c2.4,0,4.4,2,4.4,4.4v12.3 C271.8,166,269.8,168,267.4,168z"></path> </g> <g> <g> <g> <path class="st24" d="M260.6,162.1l-5.3-4.6c-0.4-0.4-0.5-1-0.1-1.5c0.4-0.4,1-0.5,1.5-0.1l3.8,3.3l5.4-6 c0.4-0.4,1.1-0.5,1.5-0.1c0.4,0.4,0.5,1.1,0.1,1.5L260.6,162.1z"></path> </g> </g> </g> </g> <g> <g> <path class="st23" d="M267.4,195h-12.3c-2.4,0-4.4-2-4.4-4.4v-12.3c0-2.4,2-4.4,4.4-4.4h12.3c2.4,0,4.4,2,4.4,4.4v12.3 C271.8,193,269.8,195,267.4,195z"></path> </g> </g> <g> <path class="st25" d="M165.8,325.7c0,0-1.1,2.4-2,3.4c-0.9,1-4.4,2.7-4.4,5.5c0,3.1,5.8,2.2,8.1,2.1s2.5-1.8,3.4-3.5 c1-1.7,1.9-1.4,2.1-2.9c0.2-1.4-0.7-4.6-0.7-4.6L165.8,325.7z"></path> <path class="st26" d="M165.7,324.8l-0.2,1.5c0,0,3.6,1.2,7,0.1l-0.2-2L165.7,324.8z"></path> <path class="st25" d="M208.1,325.7c0,0,1.1,2.4,2,3.4c0.9,1,4.4,2.7,4.4,5.5c0,3.1-5.8,2.2-8.1,2.1c-2.3-0.1-2.5-1.8-3.4-3.5 c-1-1.7-1.9-1.4-2.1-2.9c-0.2-1.4,0.7-4.6,0.7-4.6L208.1,325.7z"></path> <path class="st26" d="M208.2,324.8l0.2,1.5c0,0-3.6,1.2-7,0.1l0.2-2L208.2,324.8z"></path> <path class="st27" d="M206.3,285.9c0,3.8,3.5,38.4,3.5,38.4c-0.4,1.3-9.1,1.1-10.5,0.5c-1.4-0.6-5.3-35-5.6-38.8 c-0.2-3.8-5.9-37.1-7.1-37c-1.2,0.1-6.8,35.8-7.8,38.7c-0.9,2.9-5.3,37.4-5.3,37.4c-3,1.6-10.1-0.4-10.1-0.4s1.5-35.4,1.7-36.5 c0.3-1.6,0-5.8,0.7-15.3c0.6-8.5,2.8-26.9,4.3-36.9c0.1-0.4,0.1-0.7,0.1-1c0.3-1.9,0.5-3.4,0.6-4.1c0-0.3,0.1-0.5,0.1-0.5 c0.4-0.2,0.8-0.3,1.2-0.5c9.9-3.3,28.8-3.1,28.8-3.1s0.3,3.4,0.3,3.6c0,0.2,0.1,0.5,0.1,0.9c0.1,0.9,0.3,2.2,0.5,3.7c0,0,0,0,0,0 c0,0,0,0.1,0,0.1c0.7,5.4,1.6,13.3,1.5,14.2C203.3,250.8,206.3,282.1,206.3,285.9z"></path> <g> <path class="st14" d="M207.7,173.7l-4.9,17.5c-0.2,0.6-0.4,1.3-0.6,2.1l0,0c0,0,0,0,0,0c-0.8,3.1-1.8,7.9-2.1,13.2 c-0.2,3.6,0.5,18.1,0.5,18.1s-7.4,2.8-18.4,2.1c0,0-11.9-0.3-10.9-7.6c2.6-19.3,0.1-27.2-0.3-29.2c0,0-1.4-8.9-2.6-16.7 c3.3-1.2,17.4-6.5,17.4-6.5l7.4,0.6C193.2,167.2,204.4,169.9,207.7,173.7z"></path> </g> <g> <path class="st15" d="M189.5,141.9c0,0,7.2,1.2,6,12.5c-1.2,11.3-7.6,10.3-8,10.3c-0.4,0-6.4,0.1-6.7-13.7 C180.7,151,180.6,140.8,189.5,141.9z"></path> </g> <g> <path class="st15" d="M192.6,161.4c0,0-0.2,4.7,0.2,5.7c0.4,1-5.8,4.2-9.7,0.6c0,0,0.8-5.1,0.5-6.9 C183.5,159,192.6,161.4,192.6,161.4z"></path> </g> <g> <path class="st15" d="M195.6,151.2c0,0,0.8-0.8,1.1,0c0.3,0.9-1.3,4.7-1.2,4.8c0,0-0.1,0.3-0.3,0.1 C195,156,195.6,151.2,195.6,151.2z"></path> </g> <g> <path class="st15" d="M180.8,150.9c0,0-0.8-0.9-1.1,0c-0.3,0.8,0.8,4.7,1,4.9c0,0,0.2,0.4,0.4,0.2 C181.3,155.8,180.8,150.9,180.8,150.9z"></path> </g> <g> <path class="st16" d="M196.1,150.2c-0.2,1.5-0.5,2.7-0.5,2.7l-1.1,1.4c0,0,0.1-3-0.1-3.5c-0.1-0.2-0.1-0.5-0.2-0.8 c-0.1-0.6-0.2-1.2-0.3-1.4c-0.1-0.3-6.2-2.1-11.6,0.4c0,0,0,0.5,0,1c0,0.6-0.1,1.3-0.3,1.4c-0.5,0.2-0.3,3.6-0.3,3.6l-0.8-1 c0,0-0.2-1.8-0.5-3.8c0,0,0,0,0,0c-0.1-0.5-0.1-1-0.2-1.4c-0.1-2,0.1-5.7,2.7-7.9c1.8-0.8,6.7-1.5,9.4,0c0,0,1.5,0.9,1.8,1.2 C197.1,145.2,196.1,150.2,196.1,150.2z"></path> </g> <path class="st17" d="M184.2,163.2c0,0,1.2,1.6,3.8,1.5c2.7-0.1,3.8-1.5,3.8-1.5s-1.3,2.7-3.9,2.6 C185.4,165.9,184.2,163.2,184.2,163.2z"></path> <path class="st15" d="M182.4,167.8c0,0,1.9,3.4,5.6,3.7c2.3,0.2,4.3-2.8,5.3-4.2C193.3,167.2,188.1,165,182.4,167.8z"></path> <path class="st18" d="M192.7,166.2c0,0-1.5,1.9-4.6,4l2,3l3.3-6L192.7,166.2z"></path> <path class="st18" d="M183.3,166.6c0,0,1.9,2.4,4.7,3.6l-2.1,3.1l-3.7-5.3L183.3,166.6z"></path> <path class="st19" d="M188,170.2l1.7,2.6c0,0-1.8,1-3.4-0.1L188,170.2z"></path> <path class="st28" d="M170.8,228c0,0,9.1,3.3,29.6,0.2l-0.3-3.7c0,0-11.9,3.5-28.9,0.5L170.8,228z"></path> <path class="st29" d="M193.3,167.2c0,0-2.1,15.9-1.8,29.5c0.3,13.7,4.7,39.3,4.7,39.3s7.9-0.8,9.9-3.2c0,0-4.5-24.7-4.4-28.3 c0.1-3.7,5.8-31.1,5.8-31.1S205.3,170.4,193.3,167.2z"></path> <path class="st29" d="M182,168c0,0,0,15-0.3,28.7c-0.3,13.7-2.1,39.1-2.1,39.1s-9.3-1.3-11.2-3.8c0,0,3.3-23.9,3.1-27.6 c-0.1-3.7-4.2-30.9-4.2-30.9S168.7,171.6,182,168z"></path> <rect x="183.1" y="225.6" class="st30" width="5.6" height="4.1"></rect> <path class="st19" d="M187.2,172.1c0,0-2.5,8.5-2.7,25.4c-0.2,16.9,0.3,21.7,0.3,21.7l1.9,3.8l2.6-4c0,0-0.8-38.8-0.3-46.6 L187.2,172.1z"></path> <path class="st10" d="M197.6,195.8c0,0,3.7-1.9,4.2-2.2c0.5-0.3,6.7-1.2,7.4-1.2c0.8,0,0.8,0.6,0.6,0.9c-0.2,0.2-6.4,1.2-6.5,1.4 c-0.1,0.1,0.5,0.1,0.5,0.1s6.6-0.1,7.1,0.3c0.5,0.4-0.1,0.9-0.3,1c0,0,0.6,0.7-0.1,1c-0.7,0.3-1.6,0.5-1.6,0.5s0.9,0.5,0.3,0.9 c-0.6,0.4-7.6,2.6-7.6,2.6S199,196,197.6,195.8z"></path> <path class="st29" d="M210.3,208.5c-4.8,1.1-15.8-0.7-20.1-1.6c-0.9-0.2-1.9-0.4-2.9-0.6h0c-1.7-0.3-3.5-0.7-5-0.9h0 c-1.8-0.3-3.1-0.5-3.1-0.5s23.2-5.2,24.1-5.2c0.9,0-2.1-13.6-2.1-13.6s-3-11.4-1.4-15.8c0,0,5.9,1.8,7.8,3.1 c1.1,0.8,1.8,5.7,2.6,9c0.9,4.2,3.1,13.9,3.3,16C213.6,200.2,215.1,207.4,210.3,208.5z"></path> <path class="st29" d="M174.8,170.2c0,0-7.1,2.4-7.5,3.4c-1.4,3.9-2.1,8.2-2.6,9.9c-0.6,2.1-1.9,8.4-2.2,10.4 c-0.4,2.6-1.2,11.8-0.9,13.3c0.4,1.8,4.7,1.7,7,1.3c2.3-0.4,34.1-8.1,34.1-8.1s-1.8-5.9-1.9-6.4c0,0-24.5,2.8-27.6,3.5 c-1.8,0.4-2.2,0.5-2.2,0.5S176.4,175.8,174.8,170.2z"></path> <path class="st10" d="M179,196.7c0,0-3.2-2.6-3.6-3c-0.4-0.4-6.2-2.6-7-2.8c-0.8-0.1-0.9,0.5-0.8,0.8c0.1,0.5,6,2.5,6.1,2.7 c0.1,0.2-0.5,0-0.5,0s-6.5-1.5-7-1.2c-0.5,0.3-0.1,0.9,0.1,1c0,0-0.7,0.5-0.1,1c0.6,0.4,1.5,0.8,1.5,0.8s-1,0.3-0.5,0.8 c0.5,0.5,3.9,1.3,3.9,1.3S177.6,196.5,179,196.7z"></path> <path class="st31" d="M198.1,201.5l-10.8,4.7h0c-1.7-0.3-3.5-0.7-5-0.9L198.1,201.5z"></path> <path class="st16" d="M192.9,141.8c0,0,1.8-0.9,2.8,0.3c1,1.2,1.1,7.6-0.1,10.1C194.3,154.6,195.7,143.4,192.9,141.8z"></path> </g> <rect x="121.4" y="205.6" class="st32" width="3.2" height="145.7"></rect> <path class="st33" d="M129.1,327.3H42.9c-5.3,0-9.6-4.3-9.6-9.6V154.4c0-5.3,4.3-9.6,9.6-9.6h86.3c5.3,0,9.6,4.3,9.6,9.6v163.3 C138.7,323,134.4,327.3,129.1,327.3z"></path> <path class="st4" d="M126.3,320.2H45.6c-5.3,0-9.5-4.3-9.5-9.5V157.2c0-5.3,4.3-9.5,9.5-9.5h80.7c5.3,0,9.5,4.3,9.5,9.5v153.5 C135.9,315.9,131.6,320.2,126.3,320.2z"></path> <rect x="70.3" y="143.3" class="st32" width="31.4" height="7.1"></rect> <g> <g> <g> <g> <path class="st34" d="M116.7,313.3H52.8c-5.2,0-9.4-4.2-9.4-9.4v-36.3c0-5.2,4.2-9.4,9.4-9.4h63.8c5.2,0,9.4,4.2,9.4,9.4v36.3 C126,309.1,121.8,313.3,116.7,313.3z M52.8,259.4c-4.5,0-8.2,3.7-8.2,8.2v36.3c0,4.5,3.7,8.2,8.2,8.2h63.8 c4.5,0,8.2-3.7,8.2-8.2v-36.3c0-4.5-3.7-8.2-8.2-8.2H52.8z"></path> </g> </g> </g> </g> <g> <g> <path class="st20" d="M59.4,225.4C59.4,225.4,59.4,225.4,59.4,225.4C59.4,225.4,59.4,225.4,59.4,225.4z"></path> </g> </g> <g> <path class="st34" d="M114.8,221.5c-5.7,0-10.4-4.7-10.4-10.4c0-5.7,4.7-10.4,10.4-10.4c5.7,0,10.4,4.7,10.4,10.4 C125.2,216.8,120.6,221.5,114.8,221.5z M114.8,201.9c-5.1,0-9.2,4.1-9.2,9.2c0,5.1,4.1,9.2,9.2,9.2s9.2-4.1,9.2-9.2 C124,206,119.9,201.9,114.8,201.9z"></path> </g> <g> <path class="st34" d="M114.8,245.4c-5.7,0-10.4-4.7-10.4-10.4c0-5.7,4.7-10.4,10.4-10.4c5.7,0,10.4,4.7,10.4,10.4 C125.2,240.8,120.6,245.4,114.8,245.4z M114.8,225.8c-5.1,0-9.2,4.1-9.2,9.2c0,5.1,4.1,9.2,9.2,9.2s9.2-4.1,9.2-9.2 C124,230,119.9,225.8,114.8,225.8z"></path> </g> <g> <path class="st34" d="M67.9,211.5c-0.9,0-1.7,0-2.6-0.1c-0.9-0.1-1.9-0.2-2.8-0.4c-4-0.8-7.8-2.5-11-5c-1-0.7-1.9-1.5-2.7-2.4 c-0.2-0.2-0.3-0.3-0.5-0.5c-0.6-0.6-1.2-1.3-1.7-2c-3.7-4.8-5.6-10.4-5.6-16.5c0-14.9,12.1-26.9,26.9-26.9v1.2 c-14.2,0-25.7,11.5-25.7,25.7c0,5.8,1.9,11.2,5.4,15.7c0.5,0.7,1.1,1.3,1.6,1.9c0.1,0.2,0.3,0.3,0.5,0.5c0.8,0.8,1.7,1.6,2.6,2.3 c3.1,2.4,6.7,4,10.5,4.8c0.9,0.2,1.8,0.3,2.7,0.4c0.8,0.1,1.6,0.1,2.5,0.1c0.3,0,0.6,0,0.8,0c0.8,0,1.6-0.1,2.3-0.2 c4.2-0.5,8.2-2.1,11.7-4.5c0.4-0.3,0.7-0.5,1.1-0.8c0.3-0.2,0.6-0.5,0.9-0.7c1-0.9,2-1.9,2.9-2.9c3.9-4.6,6-10.5,6-16.6 c0-1.3-0.1-2.5-0.3-3.8l1.2-0.2c0.2,1.3,0.3,2.6,0.3,4c0,6.3-2.2,12.5-6.3,17.3c-0.9,1.1-1.9,2.1-3,3.1c-0.3,0.3-0.6,0.5-0.9,0.8 c-0.4,0.3-0.7,0.6-1.1,0.8c-3.6,2.6-7.9,4.2-12.3,4.7c-0.8,0.1-1.6,0.2-2.4,0.2C68.5,211.5,68.3,211.5,67.9,211.5z"></path> </g> <path class="st34" d="M86.7,198.8c-0.1-0.1-0.2-0.2-0.3-0.3c0,0-0.1-0.1-0.1-0.1c0,0,0,0,0,0l0,0c-5-2.8-14.1-5-14.1-5 c-0.3-0.6-0.2-2.7-0.2-4c0.9-1.1,1.8-2.8,2.3-5.5c0.2,0.1,0.3-0.1,0.3-0.1c-0.1-0.1,1.3-3.5,1-4.2c-0.1-0.4-0.4-0.4-0.6-0.3 c0-0.2,0.1-0.4,0.1-0.6c0,0,0.5-5.1-2-7.9c-0.3-0.3-1.2-0.3-1.2-0.3c-4.1-1.3-6.6-0.7-8.1,0c-2.3,1.9-2.5,5.1-2.4,6.8 c0,0.4,0.1,0.8,0.1,1.2c0,0,0,0,0,0c0,0.2,0,0.3,0.1,0.5c-0.2-0.1-0.5-0.2-0.7,0.2c-0.3,0.7,0.7,4,0.9,4.2c0,0,0.2,0.3,0.4,0.2 c0,0,0,0,0,0c0.5,2.9,1.3,4.7,2.2,5.8c-0.1,1.6-0.4,3.7-0.5,4.2c0,0,0,0,0,0c-2.1,0.7-12.7,3.5-15.9,5.6c-0.3,0.2-0.6,0.7-0.9,1.4 c0.5,0.7,1.1,1.3,1.7,2c0.2,0.2,0.3,0.3,0.5,0.5c0.8,0.8,1.7,1.6,2.7,2.3c3.1,2.4,6.8,4.1,10.8,4.9c0.9,0.2,1.8,0.3,2.7,0.4 c0.8,0.1,1.7,0.1,2.5,0.1c0.3,0,0.6,0,0.9,0c0.8,0,1.6-0.1,2.4-0.2c4.4-0.5,8.5-2.2,12-4.6c0.4-0.3,0.7-0.5,1.1-0.8 c0.3-0.2,0.6-0.5,0.9-0.8c1.1-0.9,2-1.9,2.9-3C87.6,200.3,87.1,199.4,86.7,198.8z"></path> <g> <g> <rect x="369.3" y="257.6" transform="matrix(-1 -1.224647e-16 1.224647e-16 -1 769.7928 517.0693)" class="st35" width="31.2" height="1.9"></rect> </g> <g> <rect x="393.6" y="264.3" class="st32" width="2.7" height="84.3"></rect> </g> <g> <rect x="352.5" y="257.1" transform="matrix(-1 -1.224647e-16 1.224647e-16 -1 726.6581 516.8115)" class="st36" width="21.7" height="2.6"></rect> </g> <g> <rect x="359.2" y="234.5" transform="matrix(-1 -1.224647e-16 1.224647e-16 -1 726.6581 493.9707)" class="st37" width="8.2" height="25"></rect> </g> <g> <rect x="291.5" y="259.5" transform="matrix(-1 -1.224647e-16 1.224647e-16 -1 703.1981 523.7734)" class="st38" width="120.2" height="4.8"></rect> </g> <g> <path class="st20" d="M434.8,230.5c0,0,1.3,18.4-2.3,20.6c-2.3,1.4-11.3,6-11,6.9c0.3,0.9,5.1,7.8,5.1,7.8s17.3-11.4,17.8-15 c0.5-3.5-0.9-27-3.2-28.1c-1.8-0.8-2.7-0.1-5,1.5C433.1,226.7,434.8,230.5,434.8,230.5z"></path> </g> <g> <g> <g> <path class="st39" d="M403.3,235.8l-1.5-0.6c0,0,1.9-4.5,2.7-4.4c1,0.1,2.1,0.4,2.1,0.4L403.3,235.8z"></path> </g> </g> </g> <g> <g> <g> <path class="st40" d="M402.9,236.5c0.2-0.1,3.2-6,3.2-6l6.5,0.9l-3.5,6.9L402.9,236.5z"></path> </g> </g> </g> <g> <g> <g> <path class="st41" d="M413.5,337c0,0,0.5,3.7,0.6,4.3c0.1,0.6,6-0.3,6-0.3l0.5-4.4C420.6,336.6,414.2,336.5,413.5,337z"></path> </g> </g> </g> <g> <g> <g> <path class="st42" d="M414,340.8c0,0-1.9,2.2-3.7,3.2c-1.8,1-4.7,1.4-5.7,2.4c-0.8,0.7-2.8,3.9,4.7,3.8 c7.5-0.1,11.2,0.4,12-0.8c0.8-1.2-1.2-8.9-1.2-8.9S418.3,341.2,414,340.8z"></path> </g> </g> </g> <g> <g> <g> <path class="st41" d="M375.6,337.1c0,0,0.5,3.7,0.6,4.3c0.1,0.6,6-0.3,6-0.3l0.5-4.4C382.7,336.6,376.4,336.5,375.6,337.1z"></path> </g> </g> </g> <g> <g> <g> <path class="st42" d="M376.2,340.9c0,0-1.9,2.2-3.7,3.2c-1.8,1-8.5,1.8-9.5,2.8c-0.8,0.7-2.1,3.7,8.5,3.4 c7.5-0.2,11.2,0.4,12-0.8c0.8-1.2-1.2-8.9-1.2-8.9S380.6,341.3,376.2,340.9z"></path> </g> </g> </g> <g> <g> <g> <path class="st42" d="M432.6,272.6c0,0-21.5,3.6-26.3,4.4c-4.9,0.8-31.2,7.3-34.5,9.3c-2.6,1.6,1.4,39.7,2.3,54.3h10.4 l0.8-43.7c12.4,0.3,21.3-2.9,30.4-1.5c9.1,1.4,16.6,3.3,22.4-4.4C437.9,291,438.1,274.3,432.6,272.6z"></path> </g> </g> </g> <g> <g> <g> <path class="st42" d="M411.4,340.6l10.1-0.6l1-43.1c5.4,0.1,7.2-0.2,11.5-0.7l8.2-19c-7.1,1.4-30.1,7.2-33.1,9.1 C406.4,287.9,410.5,326.1,411.4,340.6z"></path> </g> </g> </g> <g> <g> <g> <path class="st10" d="M422.7,192c0,0-7.9-2.2-10.9,3.9c-3,6.1-1.6,17.7,2.3,18.8c4,1.1,9.7-0.2,11.3-4c1.6-3.8,3-9.2,2.6-12.7 C427.6,194.6,424.8,192.9,422.7,192z"></path> </g> </g> </g> <g> <g> <g> <path class="st10" d="M416.2,213.6c0,0,0.1,4.7-0.4,5.6c-0.5,1,11,0.7,11,0.7s-1.8-5.6-0.8-10.3 C427,204.9,416.2,213.6,416.2,213.6z"></path> </g> </g> </g> <g> <g> <g> <path class="st43" d="M426.6,207.8c0,0-0.6,1.2-3.6,1c-3-0.2-6.9-3.8-8.2-4.1c-1.3-0.3-1.3-1-1.3-1l-0.7,1.2l-1.3,0.2 c0,0,0.9-3.6-1-4.9c-1.9-1.3,0.9-11.5,10.6-9c0,0,7.4,1.4,7.5,5.5C428.6,200.9,428,205.7,426.6,207.8z"></path> </g> </g> </g> <g> <g> <g> <path class="st35" d="M415.1,219.1c0,0,0-1.9,0.9-2.1c0.9-0.2,9-1.3,10.1-0.9l0.5,2.5C426.6,218.6,424.5,219.9,415.1,219.1z"></path> </g> </g> </g> <g> <g> <g> <path class="st10" d="M412.8,202.9c0.2-1.6,2-3.3,3-0.9c1,2.4-0.7,5.9-1.8,5.8C412.8,207.5,412.5,205,412.8,202.9z"></path> </g> </g> </g> <g> <g> <g> <path class="st20" d="M380.9,241.5C380.9,241.5,380.9,241.5,380.9,241.5C380.9,241.5,380.9,241.5,380.9,241.5z"></path> </g> </g> </g> <g> <g> <g> <path class="st43" d="M425,193.2c0,0,9.6-0.5,1.7,14.5L425,193.2z"></path> </g> </g> </g> <g> <g> <polygon class="st44" points="446.4,345.7 445.7,347.8 415.5,338.4 416.9,334.3 "></polygon> </g> </g> <g> <g> <rect x="414.4" y="304.1" transform="matrix(-1 -1.224647e-16 1.224647e-16 -1 832.2987 641.1045)" class="st44" width="3.4" height="32.8"></rect> </g> </g> <g> <g> <rect x="406" y="302.4" transform="matrix(-1 -1.224647e-16 1.224647e-16 -1 832.2977 606.7276)" class="st45" width="20.2" height="1.9"></rect> </g> </g> <g> <g> <polygon class="st44" points="385.7,345.7 386.4,347.8 416.6,338.4 415.2,334.1 "></polygon> </g> </g> <g> <g> <polygon class="st44" points="406.9,347.5 406.9,349.9 416.6,338.4 415.2,334.1 "></polygon> </g> </g> <g> <g> <path class="st46" d="M382.8,348.5c0,1.6,1.3,2.8,2.8,2.8c1.6,0,2.8-1.3,2.8-2.8s-1.3-2.8-2.8-2.8 C384.1,345.7,382.8,347,382.8,348.5z"></path> </g> </g> <g> <g> <path class="st46" d="M406.7,348.5c0,1.6,1.3,2.8,2.8,2.8c1.6,0,2.8-1.3,2.8-2.8s-1.3-2.8-2.8-2.8 C408,345.7,406.7,347,406.7,348.5z"></path> </g> </g> <g> <g> <path class="st46" d="M443.6,348.5c0,1.6,1.3,2.8,2.8,2.8c1.6,0,2.8-1.3,2.8-2.8s-1.3-2.8-2.8-2.8 C444.8,345.7,443.6,347,443.6,348.5z"></path> </g> </g> <g> <path class="st35" d="M395.7,302.4h40.7c2,0,3.6-1.6,3.6-3.6v-0.1c0-2-1.6-3.6-3.6-3.6h-40.7c-2,0-3.6,1.6-3.6,3.6v0.1 C392,300.8,393.7,302.4,395.7,302.4z"></path> </g> <g> <rect x="306.9" y="264.3" transform="matrix(-1 -1.224647e-16 1.224647e-16 -1 616.4931 612.8183)" class="st32" width="2.7" height="84.3"></rect> </g> <g> <path class="st47" d="M331.5,246.5h63.7c2,0,3.6-1.6,3.6-3.6v-42.8c0-2-1.6-3.6-3.6-3.6h-63.7c-2,0-3.6,1.6-3.6,3.6v42.8 C327.9,244.9,329.5,246.5,331.5,246.5z"></path> </g> <g> <rect x="330.6" y="199.2" transform="matrix(-1 -1.224647e-16 1.224647e-16 -1 726.6591 437.8799)" class="st21" width="65.4" height="39.5"></rect> </g> <g> <rect x="330.6" y="199.2" transform="matrix(-1 -1.224647e-16 1.224647e-16 -1 726.6591 401.5283)" class="st48" width="65.4" height="3.1"></rect> </g> <g> <path class="st48" d="M335.3,236.3h3.4c1.2,0,2.2-1,2.2-2.2v-27.1c0-1.2-1-2.2-2.2-2.2h-3.4c-1.2,0-2.2,1-2.2,2.2V234 C333.1,235.3,334.1,236.3,335.3,236.3z"></path> </g> <g> <path class="st48" d="M381,207.6h12c0.7,0,1.2-0.5,1.2-1.2v-0.5c0-0.7-0.5-1.2-1.2-1.2h-12c-0.7,0-1.2,0.5-1.2,1.2v0.5 C379.8,207.1,380.3,207.6,381,207.6z"></path> </g> <g> <path class="st48" d="M382.3,237.1h9.4c1.4,0,2.5-1.1,2.5-2.5v-22.5c0-1.4-1.1-2.5-2.5-2.5h-9.4c-1.4,0-2.5,1.1-2.5,2.5v22.5 C379.8,235.9,380.9,237.1,382.3,237.1z"></path> </g> <g> <path class="st49" d="M361,242.5c0,1.3,1,2.3,2.3,2.3c1.3,0,2.3-1,2.3-2.3c0-1.3-1-2.3-2.3-2.3C362.1,240.2,361,241.2,361,242.5z "></path> </g> <g> <path class="st50" d="M348.6,259.6v-0.9c0,0,1.3-5.5,10.1-5.5s8.7,6.4,8.7,6.4H348.6z"></path> </g> <g> <g> <path class="st10" d="M367.5,253.9c0,0-1.9-0.1-2.6-0.6c-0.7-0.4-4.9-3.3-5.9-2.8c-1,0.5-7.6,2.5-7.4,3.4c0.2,1,0.8,0.9,1.3,0.7 c0.5-0.2,5.3-1.2,5.7-1c0,0-4.7,1.7-4.7,3c0,1.3,1,1.6,1.4,2c0.4,0.5,1,1.6,2.2,1.7c1.2,0.1,7.1-2,8.3-2.1 c1.2-0.1,3.5,0.1,3.6-0.1C369.6,258.1,367.5,253.9,367.5,253.9z"></path> </g> </g> <g> <g> <g> <path class="st20" d="M402.6,221.7c6.1-1.1,12.6-2.6,12.6-2.6l11.4-0.5c0,0,10.5,2.3,14.6,4.2c0.4,0.2,0.4,9.4,1.5,11.8 l-3.4,7.2c0,0-2,14.3-2.4,20.7c-0.2,2.9,0.5,28.2,0.5,28.2s-1,0.5-8.8,1.4c-7.8,0.9-27.3-0.3-27.4-1.2 c-0.1-0.9,3.8-34.3,3.9-36c0.3-2.7-0.8-14.9-0.8-14.9c-1.5,2-5.2,10.9-9.1,15.1c-2.3,2.5-13.7,4-15.8,4.1 c-4.7,0.2-13.2,1.1-13.4,0.6c-0.2-0.3-0.7-7.6-0.2-7.7c0.5-0.2,16.3-1.1,20.3-3.2c1.5-0.8,5.9-10.4,5.9-10.4 S399.2,223.2,402.6,221.7z"></path> </g> </g> </g> <g> <path class="st35" d="M425.1,289.9h19.2c3.8,0,6.9-3.1,6.9-6.9v-31.9c0-3.8-3.1-6.9-6.9-6.9h-19.2c-3.8,0-6.9,3.1-6.9,6.9V283 C418.1,286.8,421.2,289.9,425.1,289.9z"></path> </g> <g> <path class="st35" d="M424,300.6c4.9,0,8.8-1.6,11.8-4.9c6.6-7.3,5.4-20.1,5.4-20.7c-0.1-1-1-1.8-2-1.6c-1,0.1-1.7,1-1.6,2 c0,0.1,1.1,11.8-4.4,17.8c-2.2,2.5-5.2,3.7-9,3.7c-1,0-1.8,0.8-1.8,1.8C422.1,299.7,423,300.6,424,300.6z"></path> </g> <g> <path class="st8" d="M364.3,215.3c0,5.1-4.1,9.2-9.2,9.2c-5.1,0-9.2-4.1-9.2-9.2c0-5.1,4.1-9.2,9.2-9.2 C360.1,206.1,364.3,210.2,364.3,215.3z"></path> <g> <g> <path class="st14" d="M361.1,220.4l-0.7,2.4c-1.2,0.9-2.6,1.4-4.2,1.6c-0.3,0-0.6,0.1-0.8,0.1c-0.1,0-0.2,0-0.3,0 c-0.3,0-0.6,0-0.9,0c-0.3,0-0.6-0.1-1-0.1c-1.4-0.3-2.7-0.9-3.8-1.7c-0.1-0.8-0.3-1.7-0.4-2.5c0.7-0.3,2.8-1,4.2-1.4 c0,0,0,0,0.1,0c0,0,0.1,0,0.1,0c0.1,0,0.2-0.1,0.2-0.1c0.1,0,0.1,0,0.2-0.1c0.3-0.1,0.5-0.2,0.5-0.2h0c0,0,0,0,0,0l0,0l1.8,0.1 l0.3,0l0.1,0c0,0,0,0,0,0c0.1,0,0.4,0.1,0.9,0.2c0,0,0,0,0,0C358.6,219,360.4,219.7,361.1,220.4z"></path> </g> <g> <path class="st15" d="M355.5,210.7c0,0,2.2,0.4,1.8,3.8c-0.4,3.4-2.3,3.1-2.4,3.1c-0.1,0-2,0-2-4.2 C352.9,213.5,352.8,210.4,355.5,210.7z"></path> </g> <g> <path class="st15" d="M356.5,216.7c0,0-0.1,1.4,0.1,1.7c0.1,0.3-1.8,1.3-2.9,0.2c0,0,0.2-1.5,0.2-2.1 C353.7,216,356.5,216.7,356.5,216.7z"></path> </g> <g> <path class="st15" d="M357.4,213.6c0,0,0.2-0.3,0.3,0c0.1,0.3-0.4,1.4-0.4,1.5c0,0,0,0.1-0.1,0 C357.2,215.1,357.4,213.6,357.4,213.6z"></path> </g> <g> <path class="st15" d="M352.9,213.5c0,0-0.2-0.3-0.3,0c-0.1,0.3,0.3,1.4,0.3,1.5c0,0,0.1,0.1,0.1,0.1 C353,215,352.9,213.5,352.9,213.5z"></path> </g> <g> <path class="st16" d="M357.5,213.3c-0.1,0.5-0.1,0.8-0.1,0.8l-0.3,0.4c0,0,0-0.9,0-1.1c0-0.1,0-0.2-0.1-0.3 c0-0.2-0.1-0.4-0.1-0.4c0-0.1-1.9-0.6-3.5,0.1c0,0,0,0.1,0,0.3c0,0.2,0,0.4-0.1,0.4c-0.2,0.1-0.1,1.1-0.1,1.1l-0.3-0.3 c0,0-0.1-0.5-0.1-1.1c0,0,0,0,0,0c0-0.1,0-0.3,0-0.4c0-0.6,0-1.7,0.8-2.4c0.5-0.2,1.4-0.4,2.9,0c0,0,0.3,0,0.4,0.1 C357.7,211.5,357.5,213.3,357.5,213.3z"></path> </g> <path class="st17" d="M353.9,217.2c0,0,0.4,0.5,1.2,0.5c0.8,0,1.2-0.4,1.2-0.4s-0.4,0.8-1.2,0.8 C354.3,218.1,353.9,217.2,353.9,217.2z"></path> <path class="st15" d="M353.4,218.6c0,0,0.6,1,1.7,1.1c0.7,0.1,1.3-0.8,1.6-1.3C356.7,218.5,355.1,217.8,353.4,218.6z"></path> <path class="st18" d="M356.5,218.1c0,0-0.4,0.6-1.4,1.2l0.6,0.9l1-1.8L356.5,218.1z"></path> <path class="st18" d="M353.6,218.3c0,0,0.6,0.7,1.4,1.1l-0.7,0.9l-1.1-1.7L353.6,218.3z"></path> <path class="st19" d="M355.1,219.4l0.5,0.8c0,0-0.5,0.3-1,0L355.1,219.4z"></path> <path class="st20" d="M361.6,220.3C361.6,220.3,361.6,220.3,361.6,220.3c-0.1,0.2-0.3,1-0.6,2c-0.1,0.1-0.2,0.2-0.3,0.3 c-0.1,0.1-0.3,0.2-0.4,0.3c-1.2,0.9-2.6,1.4-4.2,1.6c0.1-3.2,0.5-6,0.5-6c0.3,0.1,0.6,0.2,0.9,0.2c0,0,0,0,0,0 c2.3,0.7,3.5,1.3,3.9,1.5c0,0,0,0,0,0C361.6,220.3,361.6,220.3,361.6,220.3z"></path> <path class="st20" d="M353.2,224.4c-1.4-0.3-2.7-0.9-3.8-1.7c-0.3-0.3-0.6-0.5-0.9-0.8c-0.1-0.1-0.1-0.1-0.2-0.2 c-0.2-0.7-0.3-1.1-0.3-1.2v0c0,0,1.1-0.8,5.2-1.8c0,0,0,0,0,0C353.2,218.8,353.2,221.4,353.2,224.4z"></path> <path class="st19" d="M355.4,220.2c0,0.8,0,2.5,0,4.3c-0.1,0-0.2,0-0.3,0c-0.3,0-0.6,0-0.9,0c0.2-2.3,0.5-3.7,0.6-4.3 c0-0.2,0.1-0.3,0.1-0.3l0.5,0.1C355.4,220.1,355.4,220.2,355.4,220.2z"></path> <g> <path class="st20" d="M362.1,221.3c-0.3,0.4-0.7,0.7-1,1c-0.1,0.1-0.2,0.2-0.3,0.3c0,0,0.5-1.5,0.9-2.3 C361.9,220.4,362,221,362.1,221.3z"></path> </g> <g> <path class="st20" d="M348.5,221.8c-0.1-0.1-0.1-0.1-0.2-0.2c-0.2-0.2-0.4-0.4-0.6-0.7c0.1-0.2,0.2-0.4,0.3-0.5v0L348.5,221.8z "></path> </g> </g> </g> </g> <g> <path class="st51" d="M286.4,332.7c0,0-1.2-2-2.9-2.7c-1.6-0.8-5,1.9-5.3,3.4l-3.9,5.7l0.7,0.5l2.1-3.1c-1.4,3.4-3.5,7.5-2,9.6 c1.9,2.8,6.3,5.6,7.4,5.1c1.2-0.5,0.9-8.5,0.9-8.5C282.2,335.6,286.4,332.7,286.4,332.7z"></path> <g> <path class="st52" d="M286.4,332.7c0,0-1.4,2.7-2.2,4.9c-0.7,2.1-0.9,8-1.3,8.4c-0.5,0.4-4.1-1.4-4.6-3.6c-0.5-2.2,1-6.6,2.4-8.9 c1.4-2.3,2.8-3.5,2.8-3.5S286.1,330.5,286.4,332.7z"></path> </g> <path class="st52" d="M300.5,281c0,0-2.2,11.9-2.2,14.7c0,2.8-0.8,7.5-2.6,10.9c-1.8,3.4-9.7,26.9-10.4,29.7 c-0.7,2.7-1.3,5.3-1.3,5.3s-4-1.8-4-4.4c0-2.6,3.4-23.9,4-28.1c0.6-4.2,5.6-25.8,5.6-25.8L300.5,281z"></path> <path class="st10" d="M287.9,280.2c0,0,0.8,9.9,0.7,12.5c-0.1,2.6-1.3,8.4-1.3,10c0,1.5,0,33.6,1.3,37.5c1.3,3.9-3.6,1.2-3.6,1.2 s-8.5-21.1-8.5-29.9c0-8.8,1-13.2,0.4-18.8c-0.6-5.6-3.3-12.9-3.3-12.9L287.9,280.2z"></path> <path class="st53" d="M275,232.6c0,0-4.6,5.6-5.8,13.1c-1.2,7.5,1.4,21.6,2.4,25.6c0.8,3.6,2.4,15,2.5,16.2c0,0,15.4,1.7,27.1-2 c0,0,1.1-16,1.8-22.8c0.7-6.8-2.7-29.7-2.7-29.7L275,232.6z"></path> <path class="st51" d="M292.6,349.8c-5.5-4.8-4-9.7-4-9.7s-2.2-0.8-4-0.3c-1.8,0.4-2.7,4.7-2,6.1l0.6,7l0.9-0.1l-0.3-3.7 c1.1,3.6,2.1,8.1,4.5,8.9c3.3,1,8.5,0.4,9.1-0.7C297.9,356,292.6,349.8,292.6,349.8z"></path> <path class="st54" d="M295.8,180.3c0,0-1.4,8.1-0.2,10.8c1.2,2.7-6.3-3.2-6.3-3.2S292.5,179,295.8,180.3z"></path> <path class="st54" d="M293.1,157.7c0,0-11.9-2.7-13.4,10c-1.5,12.7,3.9,14.3,0.2,23c-3.6,8.6,8.9-2.8,8.9-2.8L293.1,157.7z"></path> <path class="st10" d="M292.1,157.6c3.1-0.1,9.8,1.7,10.6,9.8c0,0-0.3,2.2-0.9,3.9c-0.6,1.7,0.8,6.8,0.4,7 c-0.4,0.2-2.1,0.5-2.1,0.5s-1.9,5.5-3.9,5.4c-1.9-0.1-9.2-1.8-12.5-8.8C280.5,168.4,279.7,157.8,292.1,157.6z"></path> <g> <g> <path class="st51" d="M258.7,258.5c0,0,0.3-4.9,1.6-5.7c1.3-0.8,0.5,0.8,0.5,0.8s-0.7,3.6-0.9,5 C259.9,258.6,258.7,258.5,258.7,258.5z"></path> </g> </g> <g> <g> <path class="st10" d="M264.7,247.4c0,0,0.4,2.2,1,4.3c0.7,2.1,1.3,2.8,1,4c-0.2,0.9-1.2,1.6-1.5,1.3c-0.3-0.3-0.4-3.9-1.9-3.8 c-1.5,0,0.4,4.4-0.4,4.1c-0.9-0.3-4.3-2.2-4-4c0.2-1.8,1.6-3.1,1.5-5.8c-0.1-2.4,0.7-3.5,0.7-3.5L264.7,247.4z"></path> </g> </g> <g> <g> <path class="st51" d="M263.5,253.1c0,0,2,0.5,1.8,7.2l-2.2-0.4c0,0,0-3.7-0.6-5.7C262.5,254.2,262.6,252.9,263.5,253.1z"></path> </g> </g> <g> <g> <polygon class="st18" points="271.7,261.7 254.4,256.8 254.4,278.2 271.7,288.5 "></polygon> </g> </g> <g> <polygon class="st18" points="271.7,288.5 269.5,288.9 252.7,278.5 252.9,256.9 254.4,256.8 "></polygon> </g> <path class="st53" d="M293.7,187.5c0,0,4.6,1.9,5.4,2.5c0.8,0.6,2.5,7.3,2.9,7.8c0.4,0.6,4.4,5.5,3.8,9.6 c-0.4,3.2-2.2,4.8-3.4,6.1c-1.2,1.2-2.2,7.9-2.6,8.9c-0.4,1,0.8,14,0.8,14s-13.6,5.3-25.7-3.7c0,0,2.4-8.7,2.4-10.3 c0-1.6-1.6-12.6-5.8-19.2c-4.2-6.5,0.7-13.5,4-14.3c3.2-0.8,9.4-3.1,9.4-3.1L293.7,187.5z"></path> <path class="st53" d="M278.9,187.9c0,0-6.8-0.4-10.2,3.5c-3.4,4-3.2,8.7-4.1,10.7c-0.9,2-2.8,10.8-3.3,12.3 c-0.4,1.4-0.9,9.4-1.5,15.9c-0.6,6.4-0.5,18.5-0.5,18.5l6.5-1.2c0,0,0.3-11.5,0.4-18.1c0.2-6.6,5.6-18.4,7.6-23.5 C276,200.8,284.1,191.2,278.9,187.9z"></path> <path class="st53" d="M298.5,189.6c0,0,3,0.2,4.4,3.2c1.4,3,2,5.4,2.3,6.2c0.4,0.7,5.5,10.5,5.8,12.7c0.3,2.2-0.2,6.1-2.9,7.2 c-2.7,1.1-12.5,1.2-12.5,1.2s2.5-5,0.2-7.6c0,0,7.1-1.3,8.8-1.5C306.4,210.8,296.2,191.9,298.5,189.6z"></path> <g> <polygon class="st51" points="282.2,198 295.4,228.9 311.9,221.1 299.7,191.5 "></polygon> </g> <g> <path class="st10" d="M289.8,213.2c0,0-1.8,0.5-2.4,0.6c-0.6,0.1,0.1,1.1,0.8,1.2C289,215,289.8,213.2,289.8,213.2z"></path> </g> <g> <path class="st10" d="M291,222c0,0,0.8,0,1.2-0.2c0,0,0.6-0.4,1.1-0.7c0.1-0.1,0.3-0.2,0.4-0.2c0.4-0.1,1.2-0.4,2-1 c0.8-0.6,3.3-3,3.3-3l-1.7-2.5l-1.3-2c0,0-5.4,0.1-6.2,0.6c-0.1,0-0.2,0.1-0.2,0.1c-0.6,0.5-0.9,1.1-1.2,1.4 c-0.1,0.1-1.1,1.2-1.1,1.7c0.1,0.6,0.4,1,0.8,1.2c0,0,0.2,1.2,0.9,1.8c0,0,0.2,1.1,1.1,1.6C290,220.7,290.3,221.9,291,222z"></path> </g> <path class="st53" d="M295.8,212.4c0,0,8.1-1.4,10.3-1.7c0,0,0.2-2.8-0.3-5.2c-0.4-2.4-2.4-5.6-2.4-5.6l4.1,3.8c0,0,3.4,6.5,3.5,8 c0.1,1.5,0.5,3.9-1.5,6.2c-2,2.4-11.5,1.3-11.5,1.3S298.9,216.3,295.8,212.4z"></path> <path class="st10" d="M293.4,182.9c0,0-0.3,0.8-0.6,1.9c-0.2,0.6-0.3,1.3-0.5,2c-0.4,2-0.7,4.4-0.2,5.9c0,0-4.3,1.4-7.6-4.8 c0,0,1.6-6.5-0.1-10.5C282.6,173.4,293.4,182.9,293.4,182.9z"></path> <path class="st54" d="M302.7,167.4c0,0-5.1,3.2-10,3.8c-4.9,0.5-7.7,8-7.7,8s-7.8-12.1-1.5-19.5 C289.7,152.2,304,157.9,302.7,167.4z"></path> <path class="st10" d="M290.6,170.9c0-1-1-2.4-2.6-1.2c-1.6,1.3,0.4,5.9,1.7,5.4C291,174.7,290.6,171.9,290.6,170.9z"></path> <path class="st10" d="M294,187.6c0,0,2,6-2.7,6c-4.8,0-6.8-3.8-8.2-7.1c0,0,2.2-1.1,3.2-1.2C287.3,185.1,294,187.6,294,187.6z"></path> <polygon class="st51" points="265.4,259.9 263.1,260.2 263.2,259.2 "></polygon> <path class="st51" d="M260,258.4l-1.2,0.1c0,0,0-0.4,0-0.5C258.7,257.9,259.9,258.3,260,258.4z"></path> <g> <path class="st10" d="M288.6,340.1c0,0,0.6,3.1,1.4,5.2c0.8,2.1,4.4,6.9,4.3,7.5c-0.1,0.6-4.1,1.5-5.9,0.1 c-1.8-1.4-3.4-5.8-3.8-8.6c-0.4-2.7-0.2-4.5-0.2-4.5S286.8,338.5,288.6,340.1z"></path> </g> <path class="st12" d="M293.2,183.5c-0.2,0.6-0.4,1.3-0.6,2c-3.9-2.6-5.8-5.8-5.8-5.8C289,181.8,293.2,183.5,293.2,183.5z"></path> </g> <path class="st7" d="M111.8,67.7h46.1c3.8,0,6.8,3,6.8,6.8v18.6c0,3.8-3,6.8-6.8,6.8h-46.1c-3.8,0-6.8-3-6.8-6.8V74.5 C105,70.8,108.1,67.7,111.8,67.7z"></path> <g> <g> <path class="st20" d="M74.3,229.7C74.3,229.7,74.3,229.7,74.3,229.7C74.3,229.7,74.3,229.7,74.3,229.7z"></path> </g> </g> <g> <g> <g> <path class="st34" d="M45.9,224.5H90c1.2,0,2.2-1,2.2-2.2V221c0-1.2-1-2.2-2.2-2.2H45.9c-1.2,0-2.2,1-2.2,2.2v1.4 C43.7,223.5,44.6,224.5,45.9,224.5z"></path> </g> </g> </g> <g> <g> <g> <path class="st34" d="M45.9,235H90c1.2,0,2.2-1,2.2-2.2v-1.4c0-1.2-1-2.2-2.2-2.2H45.9c-1.2,0-2.2,1-2.2,2.2v1.4 C43.7,234,44.6,235,45.9,235z"></path> </g> </g> </g> <g> <g> <g> <path class="st34" d="M45.9,245.5H90c1.2,0,2.2-1,2.2-2.2v-1.4c0-1.2-1-2.2-2.2-2.2H45.9c-1.2,0-2.2,1-2.2,2.2v1.4 C43.7,244.5,44.6,245.5,45.9,245.5z"></path> </g> </g> </g> <path class="st34" d="M120.1,196.4h-10.5c-2.3,0-4.1-1.9-4.1-4.1v-32.6c0-2.3,1.9-4.1,4.1-4.1h10.5c2.3,0,4.1,1.9,4.1,4.1v32.6 C124.2,194.5,122.4,196.4,120.1,196.4z"></path> <g> <g> <g> <g> <path class="st10" d="M6.8,269.5c0,0,0.7,1.2,0.8,2.2c0.1,0.8,0.7,1.9,1,2.5c0.3,0.6,1.2,3.5,1.2,4.2c0,0.3-0.7,2.2-0.6,2.8 c0.1,0.6,0.4,1.8-0.1,1.9c-0.6,0.1-1.2-0.9-1.2-0.9s0.1,0.6-0.4,0.8c-0.9,0.4-1.4,0.1-1.4,0.1s-0.3,0.6-0.8,0.7 C4.5,284,4,283.6,4,283.6s-0.4,0.3-1,0.3c-0.8,0-1.2-0.7-1.2-0.7s-1,0.2-1.3-0.3c-0.3-0.5-0.2-1-0.4-1.4 c-0.1-0.4,0-4.4,1.3-7.2c1.3-2.8-0.3-5.6-0.3-5.6L6.8,269.5z"></path> </g> </g> </g> <g> <g> <path class="st55" d="M8.1,281.9c0,0,0.1-3.5-0.8-4.3c-0.9-0.8-1,0.5-1,0.5s0.1-1.3-0.9-1.4c-1-0.2-1.1,1.3-1.1,1.3 s-0.2-1-1.2-0.8s-0.8,1.4-0.8,1.4s-1-1.2-1.7,0c-1.1,2,0,4.3,0,4.3s0.3,0.5,1.3,0.3c0,0,0.7,1.4,2.2,0.4c0,0,1.6,0.9,2.1-0.5 C6.1,283.1,7.9,283.9,8.1,281.9z"></path> </g> </g> <path class="st20" d="M18.8,218.4c0,0-6.1,20.2-8.1,27.7c-0.6,2.3-2.2,24.7-2.5,25.6c-0.3,0.9-8,2.1-8,2.1s0.9-28,1-29.5 c0.1-1.5,8.5-32.8,11-33.9c1.8-0.8,2.8-0.1,5.1,1.6C20.6,214.4,18.8,218.4,18.8,218.4z"></path> <g> <rect x="77.1" y="185.4" transform="matrix(0.8369 -0.5474 0.5474 0.8369 -87.8789 77.0626)" class="st56" width="16.6" height="1.2"></rect> </g> <path class="st57" d="M94.1,186.1c0,0-0.1,0.8-0.4,1.1c0,0-0.5,0.5-0.8,0.9c-0.1,0.1-0.2,0.2-0.2,0.3c-0.2,0.3-0.5,1.1-1.1,1.8 c-0.7,0.7-3.2,2.8-3.2,2.8l-2.2-1.9l-2.3-1c0,0,1.3-5.6,1.8-6.3c0.1-0.1,0.1-0.1,0.2-0.2c0.5-0.5,1.1-0.7,1.4-1 c0.1-0.1,1.3-0.9,1.7-0.8c0.6,0.2,0.9,0.5,1.1,0.9c0,0,1.1,0.3,1.6,1c0,0,1.1,0.3,1.4,1.3C93.1,185.1,94.1,185.5,94.1,186.1z"></path> <g> <g> <path class="st41" d="M13.9,356.6c0,0-0.6,3.8-0.6,4.4c-0.1,0.6-6.2-0.3-6.2-0.3l-0.5-4.6C6.6,356.1,13.1,356.1,13.9,356.6z"></path> </g> </g> <g> <g> <path class="st42" d="M13.3,360.6c0,0,1.9,2.3,3.8,3.3c1.9,1,4.8,1.4,5.9,2.5c0.8,0.8,2.9,4-4.9,3.9c-7.8-0.1-11.5,0.5-12.3-0.8 c-0.8-1.2,1.2-9.2,1.2-9.2S8.9,361,13.3,360.6z"></path> </g> </g> <g> <g> <path class="st41" d="M57.5,356.6c0,0-0.6,3.8-0.6,4.4c-0.1,0.6-6.2-0.3-6.2-0.3l-0.5-4.6C50.3,356.1,56.8,356.1,57.5,356.6z"></path> </g> </g> <g> <g> <path class="st42" d="M57,360.6c0,0,1.9,2.3,3.8,3.3c1.9,1,8.7,1.8,9.8,2.9c0.8,0.8,2.1,3.8-8.8,3.5c-7.8-0.2-11.5,0.5-12.3-0.8 c-0.8-1.2,1.2-9.2,1.2-9.2S52.4,361,57,360.6z"></path> </g> </g> <g> <g> <path class="st42" d="M18.9,257.9c0,0-5.7,9.1-5.3,17.3c0.4,8.2-2.1,17.2-2.9,25.8c-1,9.6-4.9,32.2-5,37.4 c-0.1,5.1,0.6,21.5,0.6,21.5l7.9,0.2c0,0,6.6-39.6,8.3-43.7c1.7-4,10.2-32.9,10.5-36.1C33.2,277,18.9,257.9,18.9,257.9z"></path> </g> </g> <g> <g> <path class="st42" d="M49.1,259.1c0,0,4.3,22.5,4.9,27.6c0.6,5,0.9,24.3,1.2,27.5c0.3,3.1,2.7,41.1,3.4,45.8h-10 c0,0-7.7-27.6-7.7-40.7c0-13.1-6-28.4-9.8-37c-3.8-8.6-12.6-8.8-15-24.8C16.1,257.4,45.9,254,49.1,259.1z"></path> </g> </g> <g> <g> <path class="st10" d="M28.5,181.4c0,0,7.7-2.9,11.2,3c3.5,5.8,3.2,17.6-0.7,19c-3.9,1.4-9.7,0.7-11.7-3c-2-3.7-3.8-9-3.7-12.5 C23.8,184.4,26.5,182.4,28.5,181.4z"></path> </g> </g> <g> <g> <path class="st10" d="M38.2,203.6c0,0-0.3,2.1,0.2,3.1c0.5,1-10,1-10,1s-0.9-5.6-2.5-10.3C24.4,192.8,38.2,203.6,38.2,203.6z"></path> </g> </g> <g> <g> <path class="st58" d="M26,197.5c0,0,0.7,1.2,3.7,0.7c3-0.5,6.6-4.4,7.8-4.8c1.2-0.4,1.2-1.2,1.2-1.2l0.8,1.1l1.3,0.1 c0,0-1.2-3.5,0.6-4.9c1.8-1.4-1.9-11.4-11.3-8.1c0,0-7.3,2-7,6.1C23.3,190.8,24.4,195.5,26,197.5z"></path> </g> </g> <g> <g> <path class="st35" d="M39,206.6c0,0,0-2-0.9-2.1c-0.9-0.2-9.8-1-10.9-0.6v2.3C27.3,206.1,29.4,207.4,39,206.6z"></path> </g> </g> <g> <g> <path class="st10" d="M38.5,190.8c-0.2-0.7-1.9-2.7-2.6-0.6c-0.7,2.1,1,5,2,4.7C38.8,194.7,38.9,192.5,38.5,190.8z"></path> </g> </g> <g> <g> <path class="st20" d="M53.7,209.6c-6.1-0.8-14.7-3-14.7-3l-11.8-0.5c0,0-10.8,2.4-15.1,4.3c-0.4,0.2-0.4,9.6-1.5,12.1l3.5,7.4 c0,0,2,14.7,2.5,21.3c0.2,3-4.2,28.2-4.2,28.2s4.7,1.4,12.7,2.3c8,0.9,28.1-0.3,28.2-1.3c0.1-0.9-3.9-35.3-4.1-37.1 c-0.3-2.7,0.9-17.3,0.9-17.3c1.9-1.4,18.1-9,22.6-12.9c1.2-1.1,6.2-5.9,7.6-7.6c5.1-6,9.2-11.1,9.7-12.2c0.6-0.6-5.5-3.9-6-4.1 c-0.5-0.2-7.3,8.7-9.9,11.5c-1.2,1.3-6,4.8-6,4.8S57.5,209.8,53.7,209.6z"></path> </g> </g> <g> <g> <path class="st58" d="M26.3,182.1c0,0-9.8,0.8-0.3,15.4L26.3,182.1z"></path> </g> </g> <polygon class="st7" points="92.7,181.9 93.5,180.7 92,180.9 "></polygon> </g> </g> </svg> 