<svg id="Layer_1" data-name="Layer 1" xmlns="http://www.w3.org/2000/svg" viewBox="0 0 700 700"><defs><style>.cls-1{fill:#ebf2ff;}.cls-2{fill:#807066;}.cls-3{fill:#eea886;}.cls-4{fill:#3a557a;}.cls-5{fill:#3480b5;}.cls-6{fill:#434343;}.cls-7{fill:#a77860;}.cls-8{fill:#6e6760;}.cls-9{fill:#c98462;}</style></defs><title>iconos</title><g id="Group_1137" data-name="Group 1137"><g id="Group_1015" data-name="Group 1015"><path id="Path_1767" data-name="Path 1767" class="cls-1" d="M607.35,368.59c0,142.13-115.22,257.34-257.35,257.34S92.65,510.72,92.65,368.59,207.87,111.24,350,111.24h0C492.12,111.25,607.33,226.46,607.35,368.59Z"/><g id="Group_1014" data-name="Group 1014"><circle id="Ellipse_33" data-name="Ellipse 33" class="cls-2" cx="338.73" cy="152.44" r="18.34"/><path id="Path_1768" data-name="Path 1768" class="cls-2" d="M276.71,152.44a18.34,18.34,0,1,1-18.34-18.34,18.34,18.34,0,0,1,18.34,18.34Z"/><g id="Group_1008" data-name="Group 1008"><path id="Path_1769" data-name="Path 1769" class="cls-2" d="M249,154.52c-.41-1.32-9.85-32.69,5.63-54.76,8.76-12.5,23.68-19.34,44.31-20.33C318.58,78.5,333,83.72,341.75,95c17,21.81,6.3,58,5.83,59.54l-5.35-1.63c.1-.34,10.32-35-4.9-54.49-7.58-9.71-20.4-14.21-38.12-13.37-18.81.9-32.26,6.93-40,17.93-13.91,19.81-5,49.62-4.88,49.92Z"/></g><path id="Path_1770" data-name="Path 1770" class="cls-3" d="M517.49,524.15s6.69,15.27,13.09,13.35a57.18,57.18,0,0,1,18.9-1c4,.43,17-2.61,16.22,2.24s-21.21,6-25.49,7,11.09,11.92,12.17,16.1-20.38,28.39-30,19.73-13.54-24.26-15.56-25.45S496,542.54,496,542.54Z"/><path id="Path_1771" data-name="Path 1771" class="cls-3" d="M550.66,559.33s27.41,28.48,27.5,31.92-1.67,4.83-4.36,2.28-27.35-26.75-27.35-26.75,26.27,39.2,27,42c.43,1.63-2.85,4.53-4.42,3.3s-30-38.56-30-38.56,24.46,36.65,24.33,39.16a3.3,3.3,0,0,1-5.79,1.6c-2-2.59-26.79-35.29-26.79-35.29s16,27.82,14.57,29.95c-.86,1.3-3.58,3.93-7.47-3.37s-15-23.57-15-23.57Z"/><g id="Group_1009" data-name="Group 1009"><path id="Path_1772" data-name="Path 1772" class="cls-4" d="M384.3,623.66A257.8,257.8,0,0,1,204,580.5c1.33-10.17,2.64-20,3.84-29.08.36-2.75,3.06-23.18,4.23-31.56,39.26-18.14,120.41-9.51,161.17-1.47l3.38,28.85C380,576.73,381.72,593.53,384.3,623.66Z"/></g><g id="Group_1010" data-name="Group 1010"><path id="Path_1773" data-name="Path 1773" class="cls-5" d="M325.65,227.3s86.55,18.38,93.78,42.43,21.23,80.56,40.72,142c11.67,36.76,70.92,120.49,70.92,120.49s-33.91,25-33.91,21.62S417.33,443.94,416.36,431s-25.15-79.42-25.15-79.42S379.74,479.25,379.74,499s1.31,59.67,1.31,59.67S349,570.94,286.68,567.7c0,0-99.13-3.41-82.21-33.62,12.8-22.86,4.95-176.55,3-177.51S171,398.89,174.38,407.22s92.81,38.22,92.81,38.22,2.62,9.64-11.28,31.46c0,0-133.6-39-134.08-47.22s55.57-167,73.88-175.34c26.35-12,95.26-30.79,95.26-30.79Z"/></g><path id="Path_1774" data-name="Path 1774" class="cls-3" d="M324.24,197.19s-3.56,19.55,2.58,32.9c0,0,6.25,31.12-25.6,32.51s-32.6-27.15-32.6-27.15,7.62-10.24,2.53-38.07S324.24,197.19,324.24,197.19Z"/><g id="Group_1011" data-name="Group 1011"><path id="Path_1775" data-name="Path 1775" class="cls-3" d="M304.88,84.14s40.76,6.58,34.55,71.87-42.18,60-44.58,59.88-36.11,1.2-38.74-78.54C256.11,137.36,255,78.4,304.88,84.14Z"/></g><g id="Group_1012" data-name="Group 1012"><path id="Path_1776" data-name="Path 1776" class="cls-6" d="M340,147.59l-5.84,8s.17-17.52-.77-20.26,1.11-12.31.33-14.29-27.88,5.39-72.31.86c0,0,4.94,15.78,2,16.9S262,159.3,262,159.3l-4.8-5.55s-5.41-33.12-4.9-38.64c.7-7.36-1.8-41.73,60.73-35.83,16.57,1.57,33.08,15.11,32.18,31.36A359.27,359.27,0,0,1,340,147.59Z"/></g><path id="Path_1777" data-name="Path 1777" class="cls-7" d="M276.28,207.25s16.82,19.64,43.51,0c0,0-7.47,14.89-23.19,15.24S276.28,207.25,276.28,207.25Z"/><rect id="Rectangle_288" data-name="Rectangle 288" class="cls-8" x="136.05" y="351.37" width="197.48" height="131.14" transform="translate(-231.08 526.19) rotate(-73.81)"/><path id="Path_1778" data-name="Path 1778" class="cls-9" d="M290.65,444.09s8.22-.23,10.74-.6.85,5-2.06,6S290.65,444.09,290.65,444.09Z"/><path id="Path_1779" data-name="Path 1779" class="cls-3" d="M295.45,483.35a16.83,16.83,0,0,1-5.34.49s-3.14-.94-5.41-1.48a17.31,17.31,0,0,0-1.77-.35,30.4,30.4,0,0,1-9.69-1.62c-4.07-1.59-17.87-8.67-17.87-8.67l3.95-12.83,3-10.16s23.32-6.21,27.28-5.15a9.06,9.06,0,0,1,1.12.35,39.1,39.1,0,0,1,6.83,4.31c.6.32,6.38,3.78,6.68,5.77a6.58,6.58,0,0,1-1.83,6.13,15.68,15.68,0,0,1-1.44,8.53,9.76,9.76,0,0,1-2.9,8.13S298.18,482,295.45,483.35Z"/><path id="Path_1780" data-name="Path 1780" class="cls-5" d="M267.19,445.44a48.35,48.35,0,0,1-11.28,31.46s-98.11-30.62-109.79-35.21,42.46-148.47,42.46-148.47l39.83,13.56L207,347.25s-10.59,22.67-32.63,60C174.38,407.22,187.94,420.1,267.19,445.44Z"/><path id="Path_1781" data-name="Path 1781" class="cls-5" d="M336.26,250l-9.05-28.53s-14.57,6.78-56.79,2.08l-9.59,27.31S297.06,282.41,336.26,250Z"/><g id="Group_1013" data-name="Group 1013"><path id="Path_1782" data-name="Path 1782" class="cls-2" d="M317.34,199.12l-1.91-3.2a84.24,84.24,0,0,0,33.26-36.72l3.47,1.38A86.72,86.72,0,0,1,317.34,199.12Z"/></g><path id="Path_1783" data-name="Path 1783" class="cls-2" d="M320.28,197.52a5.13,5.13,0,1,1-5.13-5.13h0A5.13,5.13,0,0,1,320.28,197.52Z"/></g></g></g></svg>