<?xml version="1.0" encoding="utf-8"?>
<!-- Generator: Adobe Illustrator 24.0.1, SVG Export Plug-In . SVG Version: 6.00 Build 0)  -->
<svg version="1.1" id="Layer_1" xmlns="http://www.w3.org/2000/svg" xmlns:xlink="http://www.w3.org/1999/xlink" x="0px" y="0px"
	 viewBox="0 0 462.3 420.6" style="enable-background:new 0 0 462.3 420.6;" xml:space="preserve">
<style type="text/css">
	.st0{fill:#FBECDB;}
	.st1{fill:#A8D29F;}
	.st2{fill:#4A75CB;}
	.st3{fill:#699DEE;}
	.st4{fill:#D86713;}
	.st5{fill:#F1A34F;}
	.st6{fill:#C95C12;}
	.st7{fill:#ED975D;}
	.st8{fill:#2B478B;}
	.st9{fill:#233862;}
	.st10{fill:#1E3D70;}
	.st11{fill:#FFB27D;}
	.st12{fill:#2C3A64;}
	.st13{fill:#4A82D3;}
	.st14{fill:#A9453D;}
	.st15{fill:#EE9849;}
	.st16{fill:#E58638;}
	.st17{fill:#2A4E96;}
	.st18{fill:#35488B;}
	.st19{fill:#2E3552;}
	.st20{fill:#4271BC;}
	.st21{fill:#465276;}
</style>
<title>team_1</title>
<g>
	<g>
		<path class="st0" d="M143.3,152.1c-37.6,0-73-14.6-99.7-41.3S2.4,48.8,2.4,11.2C2.4,7.7,5.3,5,8.7,5c3.5,0,6.2,2.8,6.2,6.2
			c0,34.3,13.3,66.5,37.6,90.8s56.4,37.6,90.8,37.6c18.7,0,36.7-4,53.6-11.6c16.3-7.5,30.6-18.2,42.5-31.6c2.3-2.6,6.2-2.8,8.9-0.6
			c2.6,2.3,2.8,6.2,0.6,8.9c-13,14.7-28.8,26.5-46.7,34.7C183.7,147.8,163.8,152.1,143.3,152.1z"/>
	</g>
	<g>
		<path class="st0" d="M150.4,151.6c-31.6,0-57.4-25.8-57.4-57.4s25.8-57.4,57.4-57.4s57.4,25.8,57.4,57.4S182.1,151.6,150.4,151.6z
			 M150.4,48.8c-25,0-45.2,20.3-45.2,45.2s20.3,45.2,45.2,45.2s45.2-20.3,45.2-45.2C195.8,69.1,175.3,48.8,150.4,48.8z"/>
	</g>
	<g>
		<path class="st0" d="M148.1,100.2v26.7c0,1.7-1.8,2.8-3.4,2l-25-13.9c-0.7-0.4-1.1-1.1-1.1-2V86.3c0-1.7,1.8-2.8,3.4-2l25,13.9
			C147.7,98.6,148.1,99.3,148.1,100.2z"/>
		<path class="st0" d="M155.2,100.2v26.7c0,1.7,1.8,2.8,3.4,2l25-13.9c0.7-0.4,1.1-1.1,1.1-2V86.3c0-1.7-1.8-2.8-3.4-2l-25,13.9
			C155.6,98.6,155.2,99.3,155.2,100.2z"/>
		<path class="st0" d="M150.4,90.5l-24.7-13.3c-1.6-0.9-1.6-3.1-0.1-4l24.5-14.7c0.7-0.4,1.6-0.4,2.3,0l24.8,14.7
			c1.6,0.9,1.4,3.1-0.1,4l-24.8,13.3C151.8,90.9,150.9,90.9,150.4,90.5z"/>
	</g>
	<g>
		<path class="st0" d="M287.7,202.7c-3.4,0-6.2-2.8-6.2-6.2c0-0.6,0-21.7,0-22.3c-0.4-33.8-13.8-65.4-37.6-89.2
			c-24.3-24.3-56.4-37.6-90.8-37.6c-18.7,0-36.7,4-53.6,11.6c-16.3,7.5-30.6,18.2-42.5,31.6c-2.3,2.6-6.2,2.8-8.8,0.6
			c-2.6-2.3-2.8-6.2-0.6-8.8c13-14.7,28.8-26.5,46.7-34.7c18.4-8.5,38.3-12.8,58.9-12.8c37.6,0,73,14.6,99.6,41.3
			c26.2,26.2,40.8,61,41.3,98c0,0.6,0,21.7,0,22.3C293.9,199.9,291.1,202.7,287.7,202.7z"/>
	</g>
	<path class="st0" d="M24.2,410.9c0,0-48.4-100.6,47-100.6c50.4,0,29.6-27.6,63.9-59.6s154.1-57.5,179.6,4.2s-37.5,108.5,23.4,100.5
		c73.2-9.7,102.1,55.5,102.1,55.5L24.2,410.9L24.2,410.9z"/>
	<path class="st1" d="M433.7,394.6c-5.6-4.1-17.1-1.3-25.6,1.6c-1.3-1.8-2.8-3.6-4.7-5.4c18.3-11.8,43.5-36.9,30.1-39
		c-11.6-1.8-27.3,20.8-35.7,34.5c-8.7-5.9-22.1-10.2-42.4-8.7c-52.9,3.9-94.2-30.2-124.6-18.9c-24.2,9-46.4,14.1-67.8,12.4
		c0.9-15.6,1.1-46.3-11.2-49.5c-12.5-3.2-0.2,31.6,6.6,49c-1.6-0.2-3.2-0.4-4.8-0.7c-4.4-8.7-11.6-20-19.6-20.4
		c-7.5-0.4,1.8,9.8,10.9,18.5c-26.2-5.5-57.2,15.8-57.7,40.9h326.7c0,0-0.6-3.7-3.1-8.5C423.3,400.3,439.8,399.1,433.7,394.6z"/>
	<g>
		<g>
			<rect x="57.4" y="377.8" class="st2" width="102.6" height="23.2"/>
			<rect x="25.7" y="377.8" class="st3" width="102.6" height="23.2"/>
		</g>
	</g>
	<g>
		<g>
			<g>
				<rect x="200.4" y="294.2" class="st4" width="76.4" height="106.8"/>
				<rect x="176.9" y="294.2" class="st5" width="76.4" height="106.8"/>
			</g>
		</g>
		<polygon class="st6" points="253.2,294.2 276.8,310.2 276.8,294.2 		"/>
	</g>
	<g>
		<path class="st7" d="M321.4,143.4c-1.2-0.2-4.7,3.1-4.7,3.1l0,0c-7.6,0.9-18.7,2.9-22.7,3.7c-2.8,0.5-10.5-2.1-17.9-5
			c-8.9-3.6-17.5-7.6-17.5-7.6c-4.9-0.3-10.5,8.7-0.5,14.4c1.5,0.9,7.2,2.4,13.8,3.7l0,0c9.1,1.9,19.8,3.5,23.5,2.9
			c4.2-0.7,16.3-5.1,23.4-8.4l0,0l0,0h0.1c0.4-0.2,2.2-1,3.3-0.9c1.3,0.1,4.3-2.4,4.4-3C326.7,145.5,322.6,143.6,321.4,143.4z"/>
		<path class="st8" d="M312.1,256.4l-4.2,0.9c0,0-19.2-21.5-22.1-30.6c-1.6-4.8-11.7-6.9-22.3-9.7c-9.2-2.4-18.7-5.2-23.3-10.8
			c-9.8-12,6.2-26.8,6.2-26.8s17,10.1,31.6,20.5c10.2,7.3,19.3,14.7,20.7,19C302,229.3,309.1,249.1,312.1,256.4z"/>
		<path class="st9" d="M306.5,263.5h2.4c0.8-0.1,1.4-0.4,2.2-0.5c1.2-0.2,1.8,0.3,1.9,0.5l0,0h10c0.3-0.4,0-1.2-0.2-1.8
			c-0.2-0.4-0.5-0.7-0.9-0.9c-1.1-0.3-3.2-0.6-5.1-2.3c-1.1-1-5.2-3.6-5.2-3.6l0,0c-0.1,0-0.5,0.1-2.4,1.7c-1,0.8-2.6-1.2-2.6-1.2
			s-0.3,0.3-0.5,0.7s-0.3,0.9-0.2,1.5c0.1,0.9-0.3,2.6-0.7,3.7c-0.2,0.7-0.4,1.2-0.4,1.2S304.5,263.3,306.5,263.5z"/>
		<path class="st10" d="M278,199.9L263.6,217c-9.2-2.4-18.7-5.2-23.3-10.8c-9.8-12,6.2-26.8,6.2-26.8S263.4,189.5,278,199.9z"/>
		<path class="st8" d="M264.9,191c0,0-1.2,3.7-3.1,9.2c-2.4,7-6,16.9-9.8,26.1c-0.9,2-1.7,4-2.6,5.9c-3.2,7.1-6.5,13.2-9.4,16.3
			c-5.2,5.6-17.9,41.3-17.9,41.3l-3.2-0.9c0,0-4.4-30.5,11.2-47.9c0.2-0.2,0.3-0.4,0.3-0.6l0,0c0.2-2.6,0.9-14.1,2.6-25.7
			c0.4-2.9,0.8-5.7,1.4-8.5c0-0.2,0.1-0.3,0.1-0.5c2.4-12.7,4.6-18.4,7.6-21.2l21.6,6.1L264.9,191z"/>
		<path class="st9" d="M218.6,294.2h2.4c0.8-0.1,1.4-0.4,2.2-0.5c1.2-0.2,1.8,0.3,1.9,0.5l0,0h10c0.3-0.4,0-1.2-0.2-1.8
			c-0.2-0.4-0.5-0.7-0.9-0.9c-1.1-0.3-3.2-0.6-5.1-2.3c-1.1-1-5.2-3.6-5.2-3.6l0,0c-0.1,0-0.5,0.1-2.4,1.7c-1,0.8-2.6-1.2-2.6-1.2
			s-0.3,0.3-0.5,0.7c-0.2,0.4-0.3,0.9-0.2,1.5c0.1,0.9-0.3,2.6-0.7,3.7c-0.2,0.7-0.4,1.2-0.4,1.2S216.6,293.9,218.6,294.2z"/>
		<path class="st11" d="M223.2,149.5c0,0-3.6,8.8-7.8,17.4c-3.5,7.2-7.4,14.3-9.9,15.8c-3.5,2.1-13.1,8.1-19.3,12.6
			c0,0-4.8,0-5.6,0.9s-2.5,5.1-2,5.5s4.4,0.2,5.3-0.7c0.8-0.8,2.6-1.4,3.1-1.6h0.1l0,0l0,0c7.5-2.3,19.4-7.2,23-9.5
			c3.1-2,9.9-10.5,15.4-18l0,0c4-5.4,7.2-10.4,7.7-12.1C236.9,148.9,226.7,146,223.2,149.5z"/>
		<path class="st12" d="M242.1,114.9c-0.4-0.6-0.9-1.2-1.3-1.7c0.5,0,1.1,0,1.6-0.2c1.3-0.5,1.8-4.5,1.7-5.7c-0.2-1.2-1.9-4.6-4.1-5
			c-2.2-0.3-4.4,2.1-4.4,2.1c0.4-1.7,4.1-2.7,4.1-2.7c-7.6,1.4-7.2,6.4-7.1,6.9c-6.9-2.5-11,10.6-11,10.6l17.9,10.6
			c0,0,0-2.9,1.8-2.7C243.8,127.2,246.1,120.6,242.1,114.9z"/>
		<path class="st11" d="M243.2,142.2c-4.1,1.9-9.6-0.9-9.5-0.9c0.4-0.4,0.2-1.4-0.1-2.8c-0.3-1.4-1.1-3.4-2.5-5.8
			c-0.3-0.5-0.6-1-0.9-1.5l0.5-0.2l8-3.2c0,0,1.3,2.3,2.6,4.4c1.1,1.8,2.4,3.3,2.9,3.3C244.2,135.6,249.5,139.2,243.2,142.2z"/>
		<path class="st7" d="M238.6,128.7c-0.2,2.8-1.2,8-5,9.9c-0.3-1.4-1.1-3.4-2.5-5.8L238.6,128.7z"/>
		<path class="st11" d="M230.6,136c0,0,10.4-4.1,7.8-10.5c-2.7-6.4-3.1-11.3-9.9-9c-6.8,2.3-7,5.3-6.7,7.7
			C222.2,126.6,227.9,136.9,230.6,136z"/>
		<path class="st12" d="M234.5,124c4.8-0.7,6.2-2.6,6.2-2.6s-4.4-1.3-7-5.6c0,0-5.4-1.8-9.4,1.2c-0.2,0.3-0.4,0.7-0.5,1.1
			c-0.9-0.3-2.3-0.2-3.1,2.4c-1.2,3.9,3.1,8.1,3.1,8.1c1-0.3-0.1-3.8-0.3-5.6c-0.1-1.4,0.6-3.1,1-3.9c0.5,0.7,5.6,7,11.8,7.3
			c0,0-3.3-1.1-6.2-3.4C231.5,123.8,233.1,124.2,234.5,124z"/>
		<path class="st3" d="M263.1,155.5c-0.1-0.3-0.2-0.6-0.3-1c1.5-3,2.3-5.6,2.6-7.9c0.7-4.8-0.5-7.7-0.5-7.7s-7.2-3.8-10.4-4.3l0,0
			h-0.1c-3.2-0.4-10.2,1-10.2,1s1.3,3.6-2.4,6C238,144,234,141,234,141c-0.1,0.1-0.3,0.2-0.4,0.3l0,0c0,0-10,6.6-10.9,8.1
			s-4.7,8.9-4.7,8.9s1.2,6.3,14.7,6.8c1.1,2.7,2,5.3,2.2,7.5c1.1,8.5-0.2,15.2,1.1,20.1c1.2,5,23.7,2.1,27.8,1.2
			c4.1-1,3.2-5.3,3.5-9.5C267.5,179,264.4,160.2,263.1,155.5z"/>
		<path class="st13" d="M265.4,146.7c-0.3,2.3-1.1,4.9-2.6,7.9c-0.4-1.6-1.8-7.3-4.1-9.8C258.6,144.7,262.5,145.1,265.4,146.7z"/>
	</g>
	<g>
		<path class="st7" d="M173.9,202.3c0,0,4.2-5.1,5.1-5.7c0.9-0.6,4.9-1.7,5.1-1.4c0.2,0.2,0.2,0.5-0.3,1c-0.5,0.4-2.4,1.5-2.1,1.6
			c0.3,0.1,5.9-2.7,6.7-1.7c0.8,0.9-0.5,4.8-2.6,6.7c-2.2,1.9-8.7,2.7-9.1,2.9C173.3,207.9,173.9,202.3,173.9,202.3z"/>
		<path class="st11" d="M100.1,190.5c0,0,6,7.1,13.7,4.2c0,0,1.6-4,1.7-6.9c0-0.4,0-0.7,0-1c0-3.3,0.2-5.2,0.2-5.2l0,0
			c-0.3-0.1-11.7-4.8-11.7-4.4C104.1,186.1,100.1,190.5,100.1,190.5z"/>
		<path class="st7" d="M105.1,179.3c1.1,2,4.9,6,10.4,7.5c0-3.3,0.2-5.2,0.2-5.2l0,0C115.3,181.5,104.8,178.7,105.1,179.3z"/>
		<path class="st11" d="M118,181.2c0,0-12.8,3-14.5-5s-4.6-13,3.5-15.2c8.1-2.3,10.3,0.4,11.6,3C119.8,166.5,121.3,180.2,118,181.2z
			"/>
		<path class="st14" d="M103.9,178.4c-0.2,0.1-2.9,1-8.1-9.4c-0.8-1.6-1.4-5.2,0.5-8.3s8.7-5.6,14.3-6.6c5.6-1.1,7,2.1,8.3,5.3
			c1.4,3.3,5.4,6.1,5.4,6.1c-4.8,2.7-10.7-1.2-12.7-0.5c-2,0.6-2.7,3.8-2.9,4.8c-0.2,1-0.4,1.9-2.9,1s-1.1,3.6-0.7,4.5
			C105.1,175.2,105.4,177.5,103.9,178.4z"/>
		<g>
			<path class="st12" d="M71,377.8h-7.7c-1.6,0-3.4-1.6-3.9-4.7c-0.5-3-3.8-4.7-4.5-7.1s3-5.9,3-5.9l0.6-0.8l0.6-0.8l6.1,1.5
				c0,0,0.2,1.5,0.2,3.4c0.1,1.4,0.1,2.9,0,4.3c-0.2,3.3,0.9,6.8,3.8,7.5C72.2,375.7,71,377.8,71,377.8z"/>
			<path class="st12" d="M124.9,377.9h-20.5c-0.2,0-0.3-0.1-0.4-0.1c-1.4-0.7-0.9-6.1-0.8-7.8c0-0.3,0.1-0.5,0.1-0.5
				s7.2-5.9,8.2-1.4c0,0.1,0.1,0.3,0.1,0.4l0,0c1.3,4.3,6.8,6.2,10.1,6.7C124.1,375.7,124.7,377.2,124.9,377.9z"/>
			<path class="st15" d="M120.8,259.3c0,0-1.1,13.7-2.4,30.1c-1.7,22.3-3.9,49.7-4.1,54.9c-0.4,9-1.8,23.4-1.8,23.4s-3.4,3.4-10.3,2
				c0,0-6.1-20.6-7.9-42.4c0-0.4-0.1-0.7-0.1-1.1c-1.6-22.2-4.1-68.9-4.1-68.9L120.8,259.3z"/>
			<path class="st16" d="M120.8,259.3c0,0-1.1,13.7-2.4,30.1l-24,38c0-0.4-0.1-0.7-0.1-1.1c-1.6-22.2-4.1-68.9-4.1-68.9L120.8,259.3
				z"/>
			<path class="st15" d="M115.8,260.9c0,0-19.7,49.5-32.7,72.8c-13,23.3-17,29.8-17,29.8s-7.4-3-8.1-5c0,0,5-44.9,13.7-55.8
				c4.9-6.2,10.7-24.7,11-31.2s1.8-19.3,1.8-19.3L115.8,260.9z"/>
		</g>
		<g>
			<path class="st7" d="M70.6,252.7c0,0-0.5,6.2-0.9,7.1s-2.9,3.9-3.2,3.8s-0.5-0.3-0.3-0.9c0.1-0.6,1-2.4,0.7-2.4s-3.1,5.3-4.3,5
				c-1.1-0.3-2.3-4-1.6-6.6s5.3-6.7,5.4-7.1C68,248,70.6,252.7,70.6,252.7z"/>
			<path class="st10" d="M68.4,254.3c2.2,0.7,2.5,0.5,2.5,0.5s10.6-19.4,11.7-21.1c1.1-1.8,22.6-21.7,22.6-21.7l-5.5-20.6
				c0,0-24.5,31.7-27.1,36.2c-4.4,7.5-6.9,25-6.9,25S66.7,253.7,68.4,254.3z"/>
		</g>
		<path class="st17" d="M124.9,220c-0.1,4.2-0.3,9-0.7,13.8c0,0.3,0,0.6-0.1,0.9c-0.2,3-0.4,6-0.7,8.9c-0.1,1.2-0.2,2.3-0.3,3.5v0.2
			c0,0.4-0.1,0.9-0.1,1.3c-1.1,11-2.2,19.6-2.4,19.8c-0.3,0.2-0.5,0.3-0.8,0.2c-2.9-0.4-11.4,0.3-18.5-1.2c-5.9-1.2-11-3.6-16.4-6.8
			c-0.7-0.4-2.4-1.5-2.2-2.4c0.1-0.9,0.4-2.3,0.7-3.9c1.1-5.8,2.9-15.9,3.5-27.6c0.1-2.2,0.3-4.3,0.5-6.5c0.6-5.5,1.6-10.8,2.9-15.4
			c2.4-8.7,5.9-15.3,10.4-17.9c0.6-0.3,3.7,1.7,6.6,3.5c2.6,1.7,5.4,2.2,8.1,1.9l2.4,2.6c2.9,3.4,6,7.8,6.8,14.2
			c0.1,0.5,0.1,1,0.2,1.5C124.9,213.1,125,216.4,124.9,220z"/>
		<path class="st10" d="M124.9,220c-0.1,4.2-0.3,9-0.7,13.8c0,0.3,0,0.6-0.1,0.9c-16.4-10.3-18.9-29.1-18.9-29.1
			c8.1,0.4,14.5,2.2,19.4,4.9C124.9,213.1,125,216.4,124.9,220z"/>
		<g>
			<path class="st17" d="M176.4,202.8c-0.8-2.3-2.2-2.1-2.2-2.1s-24.4,6.1-26.6,6.3c-2.2,0.3-26.3-9.4-26.3-9.4s-9.5-4.3-13.9-0.4
				c-3.9,3.4-4,7.7-3.1,11.2c1.1,4.3,4.7,7.4,9.1,8c9.8,1.3,29.4,3.6,33.6,3c9.1-1.3,29.9-13.2,29.9-13.2S177,204.6,176.4,202.8z"/>
		</g>
	</g>
	<g id="man_2_">
		<g>
			<path class="st12" d="M417.1,247.5c0,0,3.4,3.1,2.7,5.4c-0.7,2.2-3.7,3.7-4.1,6.5c-0.4,2.7-2.1,4.2-3.6,4.2s-7.1,0-7.1,0
				s-1.1-1.9,1.6-2.5c2.6-0.6,3.6-3.8,3.5-6.8c-0.2-3,0.2-6.9,0.2-6.9l5.6-1.3L417.1,247.5z"/>
			<path class="st12" d="M374.8,263.2c-0.3,0.2-1.6,0.3-3.2,0.4h-16.1c0.1-0.5,0.4-2.2,3.1-2.6c3-0.5,8.1-2.2,9.2-6
				c0-0.1,0.1-0.2,0.1-0.4c0.9-4.1,7.5,1.2,7.5,1.2s0,0.2,0,0.4C375.7,257.8,376,262.6,374.8,263.2z"/>
			<path class="st18" d="M359.4,154.8c0,0,1,12.5,2.2,27.6c1.6,20.5,3.5,45.6,3.7,50.4c0.3,8.3,1.7,21.5,1.7,21.5s3.1,3.1,9.4,1.8
				c0,0,5.6-18.9,7.2-38.9c0-0.3,0-0.7,0.1-1c1.5-20.3,3.8-63.2,3.8-63.2L359.4,154.8z"/>
			<path class="st12" d="M359.4,154.8c0,0,1,12.5,2.2,27.6l22,34.8c0-0.3,0-0.7,0.1-1c1.5-20.3,3.8-63.2,3.8-63.2L359.4,154.8z"/>
			<path class="st18" d="M364,156.3c0,0,18.1,45.4,30,66.7s15.6,27.3,15.6,27.3s6.8-2.7,7.4-4.6c0,0-4.6-41.2-12.5-51.2
				c-4.5-5.7-9.8-22.7-10-28.7s-1.6-17.7-1.6-17.7L364,156.3z"/>
		</g>
		<g>
			<path class="st11" d="M308.1,131.6c0,0-4.9-1.1-5.7-1.1c-0.8,0.1-3.7,1.3-3.8,1.5c0,0.2,0.1,0.4,0.6,0.5c0.5,0,2.1-0.2,2,0
				s-4.8,1.1-4.9,2.1s2.5,2.7,4.7,2.8s6.5-2.4,6.9-2.5C311.1,134.8,308.1,131.6,308.1,131.6z"/>
			<path class="st16" d="M306,132.9c-0.7-2.2-0.5-2.6-0.5-2.6s19.9-10.8,21.7-11.9c1.8-1.1,22.4-23,22.4-23l21.1,5.8
				c0,0-32.6,24.9-37.3,27.5c-7.7,4.4-25.6,6.9-25.6,6.9S306.5,134.7,306,132.9z"/>
		</g>
		<path class="st11" d="M356,84.8c0,0-7.4,13-14.6,14.7c0,0,0.3-4.4,2.1-7.4c-0.7-0.8-1.4-1.6-1.9-2.3c-1.8-2.3-2.7-3.8-2.7-3.8
			l2.5-6.6l1.7-4.5c0.8,1.5,1.7,2.7,2.6,3.7C350.3,84.2,356,84.8,356,84.8z"/>
		<path class="st7" d="M345.5,78.7c0,0,0.9,6.5-4,11.1c-1.8-2.3-2.7-3.8-2.7-3.8l2.5-6.6C343.9,78.7,345.5,78.7,345.5,78.7z"/>
		<path class="st11" d="M336.9,87c0,0,11-4.3,8.3-11.1c-2.8-6.8-3.2-12-10.4-9.5c-7.2,2.5-7.5,5.6-7.1,8.1C328,77,333.9,88,336.9,87
			z"/>
		<path class="st15" d="M393.9,151.5c-4.5,6.4-37.8,15-37.4,10.5c0.2-1.7,0.4-4.7,0-8.7c-0.1-0.9-0.2-2-0.4-3
			c-0.8-5.8-2.9-13.3-7.3-22c-0.3-0.6-0.7-1.3-1-2c-1.8-3.4-3.4-6.9-4.6-10.4c-2.3-6.7-3.2-13-2.1-17.2c0,0,0,0,0-0.1
			c7-3.2,9.7-15.7,9.7-15.7s23.8,4.3,37.1,35.9C387.9,118.9,397.8,145.9,393.9,151.5z"/>
		<path class="st16" d="M356.6,153.3c-0.1-0.9-0.2-2-0.4-3c-0.8-5.8-2.9-13.3-7.3-22c0.8-4.7,1.8-8.5,3-10.3
			c4.7-7.1,7.5-8.2,7.5-8.2S366.5,139.8,356.6,153.3z"/>
		<g>
			<path class="st11" d="M319.1,146.2c0,0-6.6,0.3-7.6,0.7s-4.2,2.9-4.2,3.2s0.3,0.5,0.9,0.4s2.6-1,2.6-0.7
				c-0.1,0.3-5.7,3.2-5.4,4.4c0.3,1.2,4.2,2.5,7,1.9s7.3-5.4,7.8-5.5C324,149,319.1,146.2,319.1,146.2z"/>
			<path class="st15" d="M317.9,148.7c-1.3-2.1-0.4-3.1-0.4-3.1s20.3-15.9,21.9-17.5c1.6-1.6,9-27.2,9-27.2s2.5-10.3,8.5-11.5
				c5.2-1,8.7,1.6,11.1,4.6c2.8,3.6,3.1,8.5,0.7,12.4c-5.2,8.7-15.6,26.1-18.7,29c-6.8,6.6-29.5,15.8-29.5,15.8
				S318.9,150.3,317.9,148.7z"/>
		</g>
		<path class="st8" d="M346.7,63.2c0.1-0.2,0.3-0.3,0.9-0.5c0,0-0.5-0.2-1.1,0c-0.3-0.8-1.1-2-2.5-2.1c0,0,0.8,0.2,1.1,1
			c-1.9-1.2-5.5-1.6-14.5,1.4c-11.8,3.9-5.9,10.8-4.1,11.3s5.1-3,8.1-3.5s4.6,3.6,5.7,4c1.1,0.3,0.5-0.6,1.7-1.5s1.9,1.3,1.8,2.8
			c0,1.6,2.3,3,2.3,3s0,0,1.4-2.5s1-11.5-0.3-13.1C347,63.5,346.8,63.3,346.7,63.2z"/>
	</g>
	<path class="st19" d="M450.5,400.4H10.1C4.5,400.4,0,405,0,410.5l0,0c0,5.6,4.5,10.1,10.1,10.1h440.3c5.6,0,10.1-4.5,10.1-10.1l0,0
		C460.6,405,456,400.4,450.5,400.4z"/>
	<polygon class="st20" points="160,377.9 160,391.2 128.4,377.9 	"/>
	<rect x="326.2" y="263.6" class="st2" width="104.7" height="137.5"/>
	<rect x="293.9" y="263.6" class="st3" width="104.7" height="137.5"/>
	<polygon class="st20" points="430.8,263.6 430.8,284 398.8,263.6 	"/>
	<path class="st0" d="M35.5,279.1c-10.3,1.7-13.2,10.8-5.2,17.3c2.6,2.1,6.4,3.9,11.7,4.8c20.4,3.4,31.2-5.6,23-17.3
		C60.1,276.6,45.7,277.4,35.5,279.1z"/>
	<path class="st0" d="M163,161.7c-1.3,7.3,4.7,12.4,11.4,9.5c2.2-0.9,4.5-2.7,6.5-5.9c7.6-12,3.7-22.2-7-21.1
		C167.3,145,164.3,154.5,163,161.7z"/>
	<path class="st0" d="M325.6,206.2c6.5,5.3,14.9,2.1,15.8-6.2c0.3-2.8-0.3-6-2.3-9.7c-7.8-14.2-20.2-15.8-24.9-4.5
		C311.3,192.7,319.2,200.9,325.6,206.2z"/>
	<path class="st0" d="M151.3,216.9c-3.2,3.5-1.7,7.7,3.1,7.7c1.6,0,3.4-0.4,5.6-1.6c8.3-4.6,9.7-10.9,3.4-12.8
		C159.4,209,154.5,213.4,151.3,216.9z"/>
	<g>
		<g>
			<g>
				<path class="st1" d="M373.5,47.7c-2.4,0-4.3-1.9-4.3-4.3c0-2.4,1.9-4.3,4.3-4.3s4.3,1.9,4.3,4.3
					C377.8,45.7,375.9,47.7,373.5,47.7z M373.5,40.3c-1.6,0-3,1.3-3,3c0,1.6,1.3,3,3,3c1.6,0,3-1.3,3-3
					C376.4,41.7,375.1,40.3,373.5,40.3z"/>
			</g>
			<g>
				<path class="st1" d="M389.1,62.9c-2.4,0-4.3-1.9-4.3-4.3c0-2.4,1.9-4.3,4.3-4.3s4.3,1.9,4.3,4.3
					C393.4,60.9,391.5,62.9,389.1,62.9z M389.1,55.6c-1.6,0-3,1.3-3,3c0,1.6,1.3,3,3,3c1.6,0,3-1.3,3-3
					C392,56.9,390.7,55.6,389.1,55.6z"/>
			</g>
			<g>
				<g>
					<g>
						<path class="st1" d="M394.4,76.9c-0.4,0-0.7-0.3-0.7-0.7v-3c0-0.4,0.3-0.7,0.7-0.7c0.4,0,0.7,0.3,0.7,0.7v3
							C395.1,76.6,394.8,76.9,394.4,76.9z"/>
					</g>
					<g>
						<path class="st1" d="M394.4,82.2c-0.4,0-0.7-0.3-0.7-0.7v-3c0-0.4,0.3-0.7,0.7-0.7c0.4,0,0.7,0.3,0.7,0.7v3
							C395.1,81.9,394.8,82.2,394.4,82.2z"/>
					</g>
				</g>
				<g>
					<g>
						<path class="st1" d="M398.6,78.1h-2.7c-0.4,0-0.7-0.3-0.7-0.7c0-0.4,0.3-0.7,0.7-0.7h2.7c0.4,0,0.7,0.3,0.7,0.7
							C399.3,77.8,399,78.1,398.6,78.1z"/>
					</g>
					<g>
						<path class="st1" d="M392.9,78.1h-2.7c-0.4,0-0.7-0.3-0.7-0.7c0-0.4,0.3-0.7,0.7-0.7h2.7c0.4,0,0.7,0.3,0.7,0.7
							C393.6,77.8,393.3,78.1,392.9,78.1z"/>
					</g>
				</g>
			</g>
			<g>
				<g>
					<g>
						<g>
							<path class="st1" d="M370.5,60.1c-0.4,0-0.7-0.3-0.7-0.7v-3c0-0.4,0.3-0.7,0.7-0.7c0.4,0,0.7,0.3,0.7,0.7v3
								C371.2,59.8,370.9,60.1,370.5,60.1z"/>
						</g>
						<g>
							<path class="st1" d="M370.5,65.4c-0.4,0-0.7-0.3-0.7-0.7v-3c0-0.4,0.3-0.7,0.7-0.7c0.4,0,0.7,0.3,0.7,0.7v3
								C371.2,65.1,370.9,65.4,370.5,65.4z"/>
						</g>
					</g>
					<g>
						<g>
							<path class="st1" d="M374.7,61.3H372c-0.4,0-0.7-0.3-0.7-0.7s0.3-0.7,0.7-0.7h2.7c0.4,0,0.7,0.3,0.7,0.7
								C375.4,61,375.1,61.3,374.7,61.3z"/>
						</g>
						<g>
							<path class="st1" d="M369,61.3h-2.7c-0.4,0-0.7-0.3-0.7-0.7s0.3-0.7,0.7-0.7h2.7c0.4,0,0.7,0.3,0.7,0.7S369.3,61.3,369,61.3z
								"/>
						</g>
					</g>
				</g>
			</g>
		</g>
	</g>
	<g>
		<g>
			<g>
				<path class="st1" d="M82.1,157c2.4,0,4.3-1.9,4.3-4.3c0-2.4-1.9-4.3-4.3-4.3s-4.3,1.9-4.3,4.3C77.8,155,79.8,157,82.1,157z
					 M82.1,149.7c1.6,0,3,1.3,3,3c0,1.6-1.3,3-3,3c-1.6,0-3-1.3-3-3C79.2,151,80.5,149.7,82.1,149.7z"/>
			</g>
			<g>
				<path class="st1" d="M66.5,172.2c2.4,0,4.3-1.9,4.3-4.3c0-2.4-1.9-4.3-4.3-4.3s-4.3,1.9-4.3,4.3
					C62.2,170.2,64.1,172.2,66.5,172.2z M66.5,164.9c1.6,0,3,1.3,3,3c0,1.6-1.3,3-3,3c-1.6,0-3-1.3-3-3
					C63.6,166.2,64.9,164.9,66.5,164.9z"/>
			</g>
			<g>
				<g>
					<g>
						<path class="st1" d="M61.2,186.3c0.4,0,0.7-0.3,0.7-0.7v-3c0-0.4-0.3-0.7-0.7-0.7s-0.7,0.3-0.7,0.7v3
							C60.5,186,60.8,186.3,61.2,186.3z"/>
					</g>
					<g>
						<path class="st1" d="M61.2,191.5c0.4,0,0.7-0.3,0.7-0.7v-3c0-0.4-0.3-0.7-0.7-0.7s-0.7,0.3-0.7,0.7v3
							C60.5,191.2,60.8,191.5,61.2,191.5z"/>
					</g>
				</g>
				<g>
					<g>
						<path class="st1" d="M57,187.4h2.7c0.4,0,0.7-0.3,0.7-0.7s-0.3-0.7-0.7-0.7H57c-0.4,0-0.7,0.3-0.7,0.7
							C56.3,187.1,56.6,187.4,57,187.4z"/>
					</g>
					<g>
						<path class="st1" d="M62.7,187.4h2.7c0.4,0,0.7-0.3,0.7-0.7s-0.3-0.7-0.7-0.7h-2.7c-0.4,0-0.7,0.3-0.7,0.7
							C62,187.1,62.3,187.4,62.7,187.4z"/>
					</g>
				</g>
			</g>
			<g>
				<g>
					<g>
						<g>
							<path class="st1" d="M85.1,169.5c0.4,0,0.7-0.3,0.7-0.7v-3c0-0.4-0.3-0.7-0.7-0.7c-0.4,0-0.7,0.3-0.7,0.7v3
								C84.4,169.2,84.7,169.5,85.1,169.5z"/>
						</g>
						<g>
							<path class="st1" d="M85.1,174.7c0.4,0,0.7-0.3,0.7-0.7v-3c0-0.4-0.3-0.7-0.7-0.7c-0.4,0-0.7,0.3-0.7,0.7v3
								C84.4,174.4,84.7,174.7,85.1,174.7z"/>
						</g>
					</g>
					<g>
						<g>
							<path class="st1" d="M80.9,170.6h2.7c0.4,0,0.7-0.3,0.7-0.7s-0.3-0.7-0.7-0.7h-2.7c-0.4,0-0.7,0.3-0.7,0.7
								S80.5,170.6,80.9,170.6z"/>
						</g>
						<g>
							<path class="st1" d="M86.6,170.6h2.7c0.4,0,0.7-0.3,0.7-0.7s-0.3-0.7-0.7-0.7h-2.7c-0.4,0-0.7,0.3-0.7,0.7
								S86.3,170.6,86.6,170.6z"/>
						</g>
					</g>
				</g>
			</g>
		</g>
	</g>
	<path class="st21" d="M460.6,410.5H0l0,0c0,5.6,4.5,10.1,10.1,10.1h440.3C456,420.6,460.6,416.1,460.6,410.5L460.6,410.5z"/>
</g>
</svg>
