<svg width="30" height="30" viewBox="0 0 30 30" fill="none" xmlns="http://www.w3.org/2000/svg">
<path d="M2.5 7.5C2.5 6.80965 3.05965 6.25 3.75 6.25H26.25C26.9404 6.25 27.5 6.80965 27.5 7.5C27.5 8.19035 26.9404 8.75 26.25 8.75H3.75C3.05965 8.75 2.5 8.19035 2.5 7.5Z" fill="white"/>
<path d="M2.5 15.0403C2.5 14.3499 3.05965 13.7903 3.75 13.7903H26.25C26.9404 13.7903 27.5 14.3499 27.5 15.0403C27.5 15.7306 26.9404 16.2903 26.25 16.2903H3.75C3.05965 16.2903 2.5 15.7306 2.5 15.0403Z" fill="#FFFEFE"/>
<path d="M3.75 21.3306C3.05965 21.3306 2.5 21.8903 2.5 22.5806C2.5 23.2709 3.05965 23.8306 3.75 23.8306H26.25C26.9404 23.8306 27.5 23.2709 27.5 22.5806C27.5 21.8903 26.9404 21.3306 26.25 21.3306H3.75Z" fill="white"/>
</svg>
